<?xml version="1.0" ?><svg enable-background="new 0 0 50 50" id="Layer_1" version="1.1" viewBox="0 0 50 50" xml:space="preserve" xmlns="http://www.w3.org/2000/svg" xmlns:xlink="http://www.w3.org/1999/xlink"><g><rect fill="#85C1BE" height="0.01" width="0.956" x="8.702" y="34.978"/><rect fill="#85C1BE" height="0.01" width="0.956" x="8.702" y="34.978"/><path d="M45.701,37.094H4.491c-2.09-3.55-3.29-7.68-3.29-12.1c0-13.2,10.7-23.89,23.89-23.89   c13.21,0,23.91,10.69,23.91,23.89c0,3.626-0.822,7.089-2.21,10.03c-0.32,0.71-0.68,1.4-1.08,2.07   C44.083,39.866,44.41,39.327,45.701,37.094z" fill="#F38075"/><path d="M4.491,37.094c0.09,0.15,0.17,0.29,0.26,0.44c-0.1-0.15-0.18-0.29-0.27-0.44H4.491z" fill="#B47C65"/><path d="M42.441,16.041v-0.76h-3.768v0.76h-0.8v1.56v1.698v0.682v4.499v0.484v3.139H35.86v-9.419   h-4.175v-2.94h-0.187v2.94H27.55v-0.08V17.97v-0.142v-0.107v-0.787v-0.107v-0.775v-0.107v-0.787V15.05v-0.757h-0.986v-0.831h-4.116   v0.831h-0.874v1.704v1.854v0.745v4.914v0.529v0.787h-2.979v-7.701h0.12c0.121,0,0.221-0.093,0.221-0.214v-1.41   c0-0.121-0.1-0.221-0.221-0.221H7.078c-0.121,0-0.221,0.1-0.221,0.221v1.41c0,0.121,0.1,0.214,0.221,0.214h0.121v17.844h8.803   h2.595h2.979h0.298h0.908h2.5h1.063h1.206h10.323h0.028h1.076h3.263h1.104v-1.567v-0.308v-0.098v-0.709v-0.098v-0.72V31.37V30.66   v-0.098v-0.721v-0.098v-0.709v-0.098v-0.033v-0.682v-0.005v-0.098v-0.709V27.31v-0.721v-0.066v-0.032v-0.709v-0.098v-0.72v-0.098   v-0.709v-0.098v-0.721v-0.098v-0.709v-0.098v-0.72v-0.098v-0.709v-0.098v-0.721v-0.098v-0.58v-0.13v-0.098v-0.72V18.36V17.65   v-0.098v-0.721v-0.098v-0.693H42.441z" fill="#2F4956" opacity="0.1"/><g><g><path d="M12.364,35.23c0,0.604-0.491,1.092-1.095,1.092c-0.526,0-0.963-0.371-1.07-0.865     c-0.214,0.264-0.538,0.434-0.906,0.434c-0.459,0-0.856-0.267-1.045-0.658c-0.242,0.352-0.645,0.582-1.101,0.582     c-0.51,0-0.953-0.286-1.174-0.708C5.828,35.18,5.665,35.22,5.489,35.22c-0.598,0-1.086-0.485-1.086-1.086     c0-0.563,0.428-1.026,0.976-1.082c-0.028-0.091-0.044-0.192-0.044-0.296c0-0.548,0.444-0.988,0.988-0.988     c0.154,0,0.302,0.035,0.431,0.101c0.167-0.148,0.387-0.233,0.623-0.233c0.274,0,0.522,0.116,0.699,0.302     c0.098-0.028,0.201-0.041,0.308-0.041c0.522,0,0.969,0.324,1.149,0.78c0.132-0.05,0.274-0.079,0.425-0.079     c0.651,0,1.18,0.529,1.18,1.18c0,0.132-0.022,0.258-0.06,0.374c0.063-0.013,0.126-0.019,0.192-0.019     C11.873,34.135,12.364,34.626,12.364,35.23z" fill="#85BE57"/><path d="M45.795,35.23c0,0.604-0.491,1.092-1.095,1.092c-0.526,0-0.963-0.371-1.07-0.865     c-0.214,0.264-0.538,0.434-0.906,0.434c-0.459,0-0.856-0.267-1.045-0.658c-0.242,0.352-0.645,0.582-1.101,0.582     c-0.51,0-0.953-0.286-1.174-0.708c-0.145,0.072-0.308,0.113-0.485,0.113c-0.598,0-1.086-0.485-1.086-1.086     c0-0.563,0.428-1.026,0.976-1.082c-0.028-0.091-0.044-0.192-0.044-0.296c0-0.548,0.444-0.988,0.988-0.988     c0.154,0,0.302,0.035,0.431,0.101c0.167-0.148,0.387-0.233,0.623-0.233c0.274,0,0.522,0.116,0.699,0.302     c0.098-0.028,0.201-0.041,0.308-0.041c0.522,0,0.969,0.324,1.149,0.78c0.132-0.05,0.274-0.079,0.425-0.079     c0.651,0,1.18,0.529,1.18,1.18c0,0.132-0.022,0.258-0.06,0.374c0.063-0.013,0.126-0.019,0.192-0.019     C45.304,34.135,45.795,34.626,45.795,35.23z" fill="#85BE57"/></g></g><g><g><path d="M48.905,27.204c-0.1,1.14-0.29,2.25-0.55,3.34c-0.37,1.56-0.89,3.06-1.56,4.48     c-0.2,0.45-0.42,0.89-0.66,1.32l-28.29-28.29h1.53l9.35-0.86L48.905,27.204z" fill="#444444" opacity="0.05"/><path d="M45.645,37.214c-0.27,0.44-0.54,0.88-0.84,1.3l-30.73-30.73     c-0.01-0.01-0.02-0.03-0.04-0.04l1.14-1L45.645,37.214z" fill="#444444" opacity="0.05"/><path d="M43.795,39.864c-0.3,0.4-0.63,0.79-0.98,1.16l-28.74-28.74     c-0.01-0.01-0.02-0.03-0.04-0.04l1.14-1L43.795,39.864z" fill="#444444" opacity="0.05"/><path d="M28.726,7.196c0,0.702-0.818,1.268-1.824,1.268c-0.206,0-0.407-0.026-0.591-0.069     c-0.176,0.707-0.908,1.238-1.782,1.238c-0.612,0-1.156-0.261-1.486-0.66c-0.33,0.398-0.874,0.66-1.486,0.66     c-0.874,0-1.606-0.531-1.782-1.238c-0.184,0.043-0.385,0.069-0.591,0.069c-1.006,0-1.824-0.565-1.824-1.268     c0-0.698,0.818-1.268,1.824-1.268c0.081,0,0.163,0.004,0.24,0.013V5.928c0-0.702,0.818-1.268,1.824-1.268     c0.891,0,1.636,0.441,1.794,1.028c0.158-0.587,0.904-1.028,1.794-1.028c1.006,0,1.824,0.565,1.824,1.268v0.013     c0.077-0.009,0.158-0.013,0.24-0.013C27.908,5.928,28.726,6.498,28.726,7.196z" fill="#FFFFFF"/><path d="M12.824,14.524c0,0.41-0.478,0.74-1.065,0.74c-0.12,0-0.238-0.015-0.345-0.04     c-0.103,0.413-0.53,0.723-1.04,0.723c-0.358,0-0.675-0.153-0.868-0.385c-0.193,0.233-0.51,0.385-0.868,0.385     c-0.51,0-0.938-0.31-1.04-0.723c-0.108,0.025-0.225,0.04-0.345,0.04c-0.588,0-1.065-0.33-1.065-0.74     c0-0.408,0.478-0.74,1.065-0.74c0.048,0,0.095,0.003,0.14,0.008v-0.008c0-0.41,0.478-0.74,1.065-0.74     c0.52,0,0.955,0.258,1.048,0.6c0.093-0.343,0.528-0.6,1.048-0.6c0.588,0,1.065,0.33,1.065,0.74v0.008     c0.045-0.005,0.093-0.008,0.14-0.008C12.347,13.783,12.824,14.116,12.824,14.524z" fill="#FFFFFF"/><path d="M41.209,9.938c0,0.303-0.353,0.547-0.787,0.547c-0.089,0-0.176-0.011-0.255-0.03     c-0.076,0.305-0.392,0.534-0.769,0.534c-0.264,0-0.499-0.113-0.641-0.285c-0.142,0.172-0.377,0.285-0.641,0.285     c-0.377,0-0.693-0.229-0.769-0.534c-0.079,0.018-0.166,0.03-0.255,0.03c-0.434,0-0.787-0.244-0.787-0.547     c0-0.301,0.353-0.547,0.787-0.547c0.035,0,0.07,0.002,0.103,0.006V9.391c0-0.303,0.353-0.547,0.787-0.547     c0.384,0,0.706,0.19,0.774,0.443c0.068-0.253,0.39-0.443,0.774-0.443c0.434,0,0.787,0.244,0.787,0.547v0.006     c0.033-0.004,0.068-0.006,0.103-0.006C40.856,9.391,41.209,9.637,41.209,9.938z" fill="#FFFFFF"/><circle cx="14.61" cy="7.248" fill="#FFFFFF" r="0.758"/><circle cx="14.61" cy="11.747" fill="#FFFFFF" r="0.758"/></g></g><g><g><rect fill="#4E4E4E" height="6.518" width="2.276" x="33.053" y="14.495"/><rect fill="#4E4E4E" height="7.435" width="2.597" x="37.099" y="13.578"/><rect fill="#15889B" height="19.689" width="8.758" x="31.937" y="15.264"/><g><g><g><g><g><rect fill="#2EA3AF" height="18.596" width="1.359" x="32.516" y="15.68"/><rect fill="#FFFFFF" height="18.351" width="1.115" x="32.639" y="15.802"/><polygon fill="#444444" opacity="0.1" points="33.754,15.802 33.754,15.917 32.754,15.917 32.754,34.153 32.639,34.153           32.639,15.802         "/></g></g></g><g><g><g><rect fill="#2EA3AF" height="18.596" width="1.359" x="34.58" y="15.68"/><rect fill="#FFFFFF" height="18.351" width="1.115" x="34.702" y="15.802"/><polygon fill="#444444" opacity="0.1" points="35.817,15.802 35.817,15.917 34.817,15.917 34.817,34.153 34.702,34.153           34.702,15.802         "/></g></g></g></g><g><g><g><g><rect fill="#2EA3AF" height="18.596" width="1.359" x="36.693" y="15.68"/><rect fill="#FFFFFF" height="18.351" width="1.115" x="36.815" y="15.802"/><polygon fill="#444444" opacity="0.1" points="37.93,15.802 37.93,15.917 36.93,15.917 36.93,34.153 36.815,34.153           36.815,15.802         "/></g></g></g><g><g><g><rect fill="#2EA3AF" height="18.596" width="1.359" x="38.757" y="15.68"/><rect fill="#FFFFFF" height="18.351" width="1.115" x="38.879" y="15.802"/><polygon fill="#444444" opacity="0.1" points="39.994,15.802 39.994,15.917 38.994,15.917 38.994,34.153 38.879,34.153           38.879,15.802         "/></g></g></g></g></g></g><g><rect fill="#DDDDDD" height="16.91" width="8.193" x="9.506" y="18.059"/><rect fill="#415B6B" height="13.277" width="2.203" x="9.506" y="18.822"/><rect fill="#415B6B" height="13.277" width="2.203" x="15.496" y="18.822"/><rect fill="#DDDDDD" height="0.463" width="8.193" x="9.506" y="20.143"/><rect fill="#DDDDDD" height="0.463" width="8.193" x="9.506" y="21.846"/><rect fill="#DDDDDD" height="0.463" width="8.193" x="9.506" y="23.55"/><rect fill="#DDDDDD" height="0.463" width="8.193" x="9.506" y="25.253"/><rect fill="#DDDDDD" height="0.463" width="8.193" x="9.506" y="26.957"/><rect fill="#DDDDDD" height="0.463" width="8.193" x="9.506" y="28.66"/><rect fill="#DDDDDD" height="0.463" width="8.193" x="9.506" y="30.364"/><rect fill="#415B6B" height="1.948" width="4.683" x="11.261" y="33.02"/><g><g><rect fill="#415B6B" height="1.049" width="1.049" x="12.3" y="18.944"/><polygon fill="#2F4956" points="13.349,18.944 13.349,19.131 12.487,19.131 12.487,19.993 12.3,19.993 12.3,18.944      "/></g><g><rect fill="#415B6B" height="1.049" width="1.049" x="13.874" y="18.944"/><polygon fill="#2F4956" points="14.923,18.944 14.923,19.131 14.061,19.131 14.061,19.993 13.874,19.993 13.874,18.944             "/></g></g><g><g><rect fill="#415B6B" height="1.049" width="1.049" x="12.3" y="20.643"/><polygon fill="#2F4956" points="13.349,20.643 13.349,20.83 12.487,20.83 12.487,21.692 12.3,21.692 12.3,20.643      "/></g><g><rect fill="#415B6B" height="1.049" width="1.049" x="13.874" y="20.643"/><polygon fill="#2F4956" points="14.923,20.643 14.923,20.83 14.061,20.83 14.061,21.692 13.874,21.692 13.874,20.643      "/></g></g><g><g><rect fill="#415B6B" height="1.049" width="1.049" x="12.3" y="22.342"/><polygon fill="#2F4956" points="13.349,22.342 13.349,22.529 12.487,22.529 12.487,23.391 12.3,23.391 12.3,22.342      "/></g><g><rect fill="#415B6B" height="1.049" width="1.049" x="13.874" y="22.342"/><polygon fill="#2F4956" points="14.923,22.342 14.923,22.529 14.061,22.529 14.061,23.391 13.874,23.391 13.874,22.342             "/></g></g><g><g><rect fill="#415B6B" height="1.049" width="1.049" x="12.3" y="24.041"/><polygon fill="#2F4956" points="13.349,24.04 13.349,24.228 12.487,24.228 12.487,25.09 12.3,25.09 12.3,24.04      "/></g><g><rect fill="#415B6B" height="1.049" width="1.049" x="13.874" y="24.041"/><polygon fill="#2F4956" points="14.923,24.04 14.923,24.228 14.061,24.228 14.061,25.09 13.874,25.09 13.874,24.04      "/></g></g><g><g><rect fill="#415B6B" height="1.049" width="1.049" x="12.3" y="25.74"/><polygon fill="#2F4956" points="13.349,25.739 13.349,25.927 12.487,25.927 12.487,26.789 12.3,26.789 12.3,25.739      "/></g><g><rect fill="#415B6B" height="1.049" width="1.049" x="13.874" y="25.74"/><polygon fill="#2F4956" points="14.923,25.739 14.923,25.927 14.061,25.927 14.061,26.789 13.874,26.789 13.874,25.739             "/></g></g><g><g><rect fill="#415B6B" height="1.049" width="1.049" x="12.3" y="27.438"/><polygon fill="#2F4956" points="13.349,27.438 13.349,27.626 12.487,27.626 12.487,28.487 12.3,28.487 12.3,27.438      "/></g><g><rect fill="#415B6B" height="1.049" width="1.049" x="13.874" y="27.438"/><polygon fill="#2F4956" points="14.923,27.438 14.923,27.626 14.061,27.626 14.061,28.487 13.874,28.487 13.874,27.438             "/></g></g><g><g><rect fill="#415B6B" height="1.049" width="1.049" x="12.3" y="29.137"/><polygon fill="#2F4956" points="13.349,29.137 13.349,29.324 12.487,29.324 12.487,30.186 12.3,30.186 12.3,29.137      "/></g><g><rect fill="#415B6B" height="1.049" width="1.049" x="13.874" y="29.137"/><polygon fill="#2F4956" points="14.923,29.137 14.923,29.324 14.061,29.324 14.061,30.186 13.874,30.186 13.874,29.137             "/></g></g><g><g><rect fill="#415B6B" height="1.049" width="1.049" x="12.3" y="30.836"/><polygon fill="#2F4956" points="13.349,30.836 13.349,31.023 12.487,31.023 12.487,31.885 12.3,31.885 12.3,30.836      "/></g><g><rect fill="#415B6B" height="1.049" width="1.049" x="13.874" y="30.836"/><polygon fill="#2F4956" points="14.923,30.836 14.923,31.023 14.061,31.023 14.061,31.885 13.874,31.885 13.874,30.836             "/></g></g></g><g><rect fill="#E8C785" height="7.703" width="9.797" x="22.478" y="27.218"/><g><rect fill="#FBDB93" height="8.313" width="6.131" x="30.685" y="26.607"/><g><g><g><polygon fill="#E8C580" points="30.684,27.313 30.684,28.493 34.597,28.493 34.597,29.213 36.815,29.213 36.815,27.313                 "/><polygon fill="#415B6B" points="30.684,27.384 30.684,28.493 34.597,28.493 34.597,29.142 36.815,29.142 36.815,27.384                 "/></g></g><rect fill="#E8C580" height="0.798" transform="matrix(-1 -4.460666e-011 4.460666e-011 -1 65.3656 57.6278)" width="3.996" x="30.685" y="28.415"/><rect fill="#FBDB93" height="0.785" transform="matrix(-1 -4.463242e-011 4.463242e-011 -1 65.2818 57.772)" width="3.912" x="30.685" y="28.493"/></g><g><g><g><polygon fill="#E8C580" points="30.684,29.781 30.684,30.961 34.597,30.961 34.597,31.681 36.815,31.681 36.815,29.781                 "/><polygon fill="#415B6B" points="30.684,29.852 30.684,30.961 34.597,30.961 34.597,31.61 36.815,31.61 36.815,29.852                 "/></g></g><rect fill="#E8C580" height="0.798" transform="matrix(-1 -4.460666e-011 4.460666e-011 -1 65.3656 62.564)" width="3.996" x="30.685" y="30.883"/><rect fill="#FBDB93" height="0.785" transform="matrix(-1 -4.463242e-011 4.463242e-011 -1 65.2818 62.7083)" width="3.912" x="30.685" y="30.961"/></g><g><g><g><polygon fill="#E8C580" points="30.684,32.249 30.684,33.429 34.597,33.429 34.597,34.149 36.815,34.149 36.815,32.249                 "/><polygon fill="#415B6B" points="30.684,32.32 30.684,33.429 34.597,33.429 34.597,34.078 36.815,34.078 36.815,32.32                 "/></g></g><rect fill="#E8C580" height="0.798" transform="matrix(-1 -4.506185e-011 4.506185e-011 -1 65.3656 67.5003)" width="3.996" x="30.685" y="33.351"/><rect fill="#FBDB93" height="0.785" transform="matrix(-1 -4.509738e-011 4.509738e-011 -1 65.2818 67.6445)" width="3.912" x="30.685" y="33.43"/></g></g><g><rect fill="#FBDB93" height="8.313" width="6.131" x="17.926" y="26.607"/><g><g><g><polygon fill="#E8C580" points="24.057,27.313 24.057,28.493 20.145,28.493 20.145,29.213 17.926,29.213 17.926,27.313                 "/><polygon fill="#415B6B" points="24.057,27.384 24.057,28.493 20.145,28.493 20.145,29.142 17.926,29.142 17.926,27.384                 "/></g></g><rect fill="#E8C580" height="0.798" width="3.996" x="20.061" y="28.415"/><rect fill="#FBDB93" height="0.785" width="3.912" x="20.144" y="28.493"/></g><g><g><g><polygon fill="#E8C580" points="24.057,29.781 24.057,30.961 20.145,30.961 20.145,31.681 17.926,31.681 17.926,29.781                 "/><polygon fill="#415B6B" points="24.057,29.852 24.057,30.961 20.145,30.961 20.145,31.61 17.926,31.61 17.926,29.852                 "/></g></g><rect fill="#E8C580" height="0.798" width="3.996" x="20.061" y="30.883"/><rect fill="#FBDB93" height="0.785" width="3.912" x="20.144" y="30.961"/></g><g><g><g><polygon fill="#E8C580" points="24.057,32.249 24.057,33.429 20.145,33.429 20.145,34.149 17.926,34.149 17.926,32.249                 "/><polygon fill="#415B6B" points="24.057,32.32 24.057,33.429 20.145,33.429 20.145,34.078 17.926,34.078 17.926,32.32                 "/></g></g><rect fill="#E8C580" height="0.798" width="3.996" x="20.061" y="33.351"/><rect fill="#FBDB93" height="0.785" width="3.912" x="20.144" y="33.43"/></g></g><g><polygon fill="#FBDB93" points="29.845,34.921 24.909,34.921 24.909,25.616 27.377,23.114 29.845,25.616     "/><rect fill="#E8C580" height="7.613" width="3.875" x="25.439" y="26.777"/><rect fill="#415B6B" height="7.259" width="3.521" x="25.616" y="26.954"/><polygon fill="#E8C580" points="29.777,25.567 27.377,23.114 24.976,25.567     "/><rect fill="#E8C580" height="7.613" width="0.189" x="27.283" y="26.777"/><rect fill="#E8C580" height="0.189" width="3.652" x="25.551" y="30.489"/></g></g></g><path d="M45.705,37.096c-0.99,1.69-2.19,3.25-3.56,4.64c-0.33,0.34-0.68,0.68-1.04,1   c-4.23,3.83-9.85,6.16-16.01,6.16c-6.16,0-11.77-2.33-16.01-6.16c-0.36-0.32-0.71-0.66-1.04-1c-1.37-1.39-2.57-2.95-3.56-4.64   H45.705z" fill="#E7594A"/><g><g><g><path d="M48.799,36.112c0,0.634-0.519,1.153-1.161,1.153H2.16c-0.642,0-1.161-0.519-1.161-1.153      c0-0.642,0.519-1.154,1.161-1.154h45.478C48.279,34.959,48.799,35.47,48.799,36.112z" fill="#2F4956"/></g></g></g></g></svg>
