<?xml version="1.0" ?><svg xmlns="http://www.w3.org/2000/svg" xmlns:xlink="http://www.w3.org/1999/xlink" version="1.1" id="Layer_1" viewBox="0 0 100 100" style="enable-background:new 0 0 100 100;" xml:space="preserve"><g><g><g><path d="M50.771,37.491l-2.165-0.622l0.311-1.082c1.206-4.203,2.866-7.126,4.328-9.537l0.583-0.963l1.926,1.168l-0.584,0.963     c-1.385,2.286-2.959,5.055-4.088,8.991L50.771,37.491z"/></g><g><path d="M49.229,37.491l-0.311-1.082c-1.13-3.936-2.703-6.705-4.089-8.991l-0.583-0.963l1.926-1.168l0.583,0.963     c1.461,2.411,3.121,5.334,4.328,9.537l0.311,1.082L49.229,37.491z"/></g></g><g><g><g><path style="fill:#4C4C4C;" d="M77.376,60.459c-0.113-1.066,0.543-2.08,0.576-3.151c0.019-0.642-0.187-1.27-0.395-1.881      c-1.115-3.27-2.512-6.695-5.431-8.72c-0.415-0.287-0.857-0.53-1.311-0.756c0.323,3.572-0.134,7.221-1.612,10.484      c-1.78,3.93-5.098,7.24-9.211,8.626c-1.06-0.951-2.645-1.163-3.992-0.723c0.045,0.34,0.085,0.681,0.134,1.02      c0.2,1.369,0.515,2.85,1.621,3.745c0.356,0.288,0.78,0.501,1.099,0.826c0.667,0.68,0.742,1.689,0.996,2.587      c0.254,0.898,0.94,1.871,1.916,1.811c0.495-0.03,0.942-0.332,1.438-0.349c0.436-0.014,0.762,0.424,1.024,0.987      c0.373,0.801,1.566,0.766,1.885-0.056c0.117-0.3,0.239-0.551,0.381-0.677c0.581-0.519,1.531-0.285,2.23,0.079      c1.905,0.991,3.356,2.741,3.925,4.735c0.21,0.737,0.32,1.534,0.814,2.135c0.494,0.601,2.56,1.828,3.201,1.382      c1.577-1.096-0.675-5.564-2.928-8.915c-0.706-1.05-1.34-3.232-0.059-3.543c0.426-0.103,0.877-0.055,1.309-0.129      c0.432-0.074,0.888-0.334,0.948-0.749c0.036-0.251-0.081-0.494-0.162-0.735c-0.311-0.92-0.085-1.987,0.576-2.721      c0.597-0.663,1.536-1.098,1.813-1.931C78.534,62.721,77.499,61.627,77.376,60.459z"/><path d="M76.293,83.782c-1.472,0.001-3.281-1.378-3.699-1.886c-0.55-0.669-0.743-1.432-0.913-2.104      c-0.037-0.147-0.074-0.293-0.114-0.437c-0.482-1.689-1.738-3.2-3.361-4.045c-0.491-0.256-0.836-0.272-0.939-0.245      c-0.008,0.028-0.047,0.109-0.102,0.251c-0.311,0.796-1.07,1.328-1.935,1.355c-0.866,0.022-1.662-0.455-2.022-1.231      c-0.063-0.136-0.116-0.23-0.157-0.294c-0.067,0.02-0.141,0.046-0.215,0.072c-0.27,0.093-0.606,0.209-1.002,0.233      c-1.587,0.102-2.677-1.251-3.067-2.628c-0.064-0.229-0.119-0.464-0.173-0.7c-0.137-0.597-0.255-1.113-0.543-1.406      c-0.112-0.114-0.289-0.233-0.477-0.36c-0.18-0.121-0.359-0.244-0.526-0.379c-1.369-1.108-1.784-2.797-2.027-4.457      c-0.035-0.235-0.064-0.47-0.093-0.704l-0.043-0.333c-0.07-0.537,0.252-1.048,0.767-1.217c1.552-0.508,3.257-0.296,4.532,0.527      c3.4-1.329,6.361-4.214,7.995-7.824c1.315-2.904,1.839-6.334,1.516-9.918c-0.036-0.405,0.149-0.8,0.486-1.03      c0.337-0.23,0.771-0.261,1.136-0.08c0.577,0.286,1.039,0.553,1.452,0.839c3.251,2.255,4.727,5.973,5.855,9.282      c0.215,0.629,0.482,1.412,0.455,2.28c-0.019,0.628-0.191,1.202-0.343,1.708c-0.149,0.498-0.278,0.927-0.239,1.289l0,0      c0.031,0.299,0.187,0.662,0.351,1.047c0.33,0.772,0.741,1.732,0.382,2.81c-0.283,0.852-0.936,1.383-1.46,1.809      c-0.204,0.167-0.413,0.33-0.585,0.52c-0.387,0.429-0.525,1.074-0.345,1.606c0.134,0.37,0.279,0.77,0.21,1.255      c-0.123,0.86-0.859,1.527-1.873,1.7c-0.238,0.041-0.482,0.054-0.726,0.065c-0.129,0.006-0.258,0.007-0.384,0.025      c-0.034,0.36,0.19,1.224,0.606,1.843c2.57,3.825,5.114,8.745,2.636,10.468C77.009,83.696,76.661,83.782,76.293,83.782z       M67.373,72.806c0.583,0,1.223,0.169,1.872,0.507c2.194,1.141,3.83,3.118,4.487,5.425c0.047,0.166,0.09,0.334,0.133,0.504      c0.128,0.507,0.238,0.945,0.469,1.225c0.247,0.299,1.212,0.872,1.742,1.027c0.131-0.719-0.611-3.254-3.273-7.217      c-0.605-0.899-1.321-2.712-0.815-4.017c0.25-0.642,0.756-1.085,1.424-1.247c0.342-0.083,0.659-0.097,0.938-0.109      c0.122-0.006,0.244-0.009,0.364-0.024l-0.009-0.024c-0.439-1.3-0.123-2.805,0.806-3.836c0.268-0.297,0.57-0.542,0.837-0.76      c0.343-0.279,0.668-0.543,0.744-0.773c0.089-0.267-0.108-0.727-0.316-1.214c-0.212-0.497-0.453-1.06-0.521-1.695c0,0,0,0,0,0      c-0.086-0.811,0.131-1.534,0.322-2.172c0.123-0.41,0.239-0.798,0.249-1.131c0.014-0.46-0.172-1.004-0.336-1.484      c-0.94-2.757-2.133-5.82-4.452-7.737c0.006,3.174-0.609,6.196-1.809,8.847c-2.004,4.426-5.605,7.79-9.877,9.228      c-0.384,0.13-0.808,0.043-1.112-0.229c-0.509-0.457-1.239-0.683-1.985-0.655c0.164,1.112,0.413,2.34,1.208,2.984      c0.117,0.095,0.243,0.178,0.368,0.262c0.26,0.175,0.554,0.373,0.826,0.651c0.733,0.747,0.953,1.707,1.131,2.479      c0.046,0.199,0.09,0.397,0.145,0.59c0.153,0.546,0.523,0.984,0.762,0.994c0.088-0.006,0.249-0.061,0.404-0.114      c0.286-0.099,0.642-0.222,1.066-0.236c0.792-0.029,1.476,0.455,1.984,1.436c0.137-0.319,0.318-0.649,0.593-0.895      C66.18,73.003,66.743,72.806,67.373,72.806z M74.819,69.182L74.819,69.182L74.819,69.182z"/></g><g><path style="fill:#FAD151;" d="M59.993,65.061c4.113-1.385,7.431-4.695,9.211-8.626c1.477-3.263,1.934-6.912,1.612-10.484      c-0.997-0.495-2.067-0.865-3.149-1.163c-2.422-0.667-4.93-1.043-7.449-1.125c-1.595-0.052-7.352-0.466-8.542,0.816      c-1.171,1.261,1.704,3.271,2.732,5.603c0.981,2.226,0.658,4.817,0.878,7.237c0.213,2.342,0.411,4.687,0.715,7.02      C57.347,63.897,58.932,64.11,59.993,65.061z"/><path d="M59.73,66.338l-0.489-0.438c-0.712-0.639-1.848-0.833-2.89-0.491L55.06,65.83l-0.176-1.346      c-0.266-2.036-0.453-4.102-0.633-6.101l-0.088-0.962c-0.067-0.737-0.086-1.489-0.104-2.242c-0.041-1.685-0.08-3.276-0.683-4.643      c-0.332-0.752-0.923-1.509-1.494-2.241c-1.076-1.379-2.415-3.095-1.033-4.583c1.182-1.272,4.237-1.4,8.782-1.201l0.622,0.026      c2.621,0.086,5.216,0.478,7.712,1.165c1.29,0.356,2.386,0.762,3.351,1.241l0.564,0.28l0.057,0.628      c0.358,3.97-0.233,7.791-1.707,11.049c-2.004,4.426-5.605,7.79-9.877,9.228L59.73,66.338z M57.371,62.994      c1.011,0,1.999,0.276,2.811,0.8c3.4-1.329,6.361-4.214,7.995-7.824c1.236-2.731,1.774-5.925,1.565-9.276      c-0.697-0.304-1.481-0.574-2.376-0.821c-2.324-0.64-4.743-1.005-7.187-1.085l-0.648-0.027c-5.425-0.241-6.737,0.201-7.034,0.486      c0.036,0.221,0.713,1.087,1.16,1.661c0.625,0.802,1.334,1.711,1.779,2.719c0.783,1.775,0.829,3.666,0.874,5.496      c0.017,0.703,0.034,1.405,0.096,2.093l0.087,0.964c0.143,1.587,0.29,3.217,0.477,4.828      C57.105,62.999,57.238,62.994,57.371,62.994z"/></g></g><g><rect x="54.135" y="49.111" transform="matrix(0.243 -0.97 0.97 0.243 -2.5055 97.264)" width="13.862" height="2.252"/></g><g><path d="M76.809,59.573l-0.629-0.935c-3.627-5.397-8.99-7.039-13.721-8.488c-3.839-1.176-7.154-2.191-8.83-4.962l-0.583-0.964     l1.927-1.165l0.583,0.963c1.231,2.035,4.165,2.933,7.562,3.974c4.838,1.481,10.859,3.325,14.931,9.386l0.628,0.934L76.809,59.573     z"/></g><g><path d="M74.154,70.607l-0.359-1.068c-2.092-6.226-4.133-9.515-8.735-14.08l-0.8-0.793l1.586-1.599l0.799,0.793     c4.832,4.793,7.088,8.429,9.283,14.963l0.359,1.067L74.154,70.607z"/></g><g><path d="M67.55,75.14l-0.468-1.024c-1.099-2.407-1.395-4.438-1.708-6.589c-0.3-2.056-0.609-4.183-1.69-6.863l-0.421-1.044     l2.089-0.842l0.421,1.044c1.181,2.93,1.526,5.294,1.83,7.38c0.302,2.073,0.563,3.863,1.528,5.977l0.468,1.024L67.55,75.14z"/></g><g><g><path style="fill:#4C4C4C;" d="M84.574,18.674c-0.798-1.359-2.724-1.473-4.289-1.228c-0.295,0.046-0.582,0.122-0.874,0.181      c-0.047,0.454-0.007,0.919-0.113,1.363c-0.175,0.736-0.749,2.47-0.821,3.222c-0.057,0.588,0.204,1.159,0.254,1.747      c0.1,1.192-0.662,2.282-0.859,3.462c-0.086,0.515-0.063,1.043-0.122,1.562c-0.068,0.582-0.238,1.147-0.409,1.708      c-0.25,0.826-1.102,1.918-1.352,2.743c-0.426,1.407-0.699,3.061-1.126,4.468c-0.421,1.389-0.398,2.273-1.043,3.574      c-0.348,0.7-0.764,1.388-0.88,2.159c-0.104,0.692,0.078,1.407,0.454,1.999c2.669-0.741,4.617-2.586,5.596-5.58      c1.82-5.564,3.639-11.128,5.459-16.693C84.831,22.193,85.199,19.736,84.574,18.674z"/><path d="M73.394,46.762c-0.378,0-0.74-0.191-0.95-0.522c-0.539-0.848-0.758-1.832-0.618-2.771      c0.123-0.817,0.483-1.516,0.801-2.132l0.184-0.36c0.345-0.697,0.463-1.245,0.612-1.939c0.096-0.446,0.197-0.917,0.362-1.46      c0.202-0.667,0.368-1.391,0.543-2.158c0.176-0.772,0.359-1.569,0.583-2.31c0.163-0.536,0.475-1.08,0.777-1.605      c0.239-0.417,0.487-0.848,0.575-1.139c0.16-0.528,0.311-1.027,0.367-1.51c0.023-0.199,0.031-0.4,0.041-0.6      c0.016-0.341,0.034-0.682,0.09-1.019c0.096-0.577,0.286-1.091,0.47-1.589c0.223-0.606,0.416-1.128,0.377-1.594      c-0.015-0.183-0.061-0.362-0.102-0.543c-0.09-0.388-0.201-0.872-0.15-1.406c0.054-0.56,0.275-1.357,0.581-2.42      c0.109-0.378,0.208-0.72,0.264-0.955c0.04-0.167,0.047-0.389,0.054-0.625c0.006-0.198,0.014-0.397,0.034-0.593      c0.051-0.49,0.414-0.889,0.896-0.987l0.293-0.064c0.209-0.047,0.417-0.094,0.629-0.127c2.56-0.399,4.542,0.244,5.437,1.77      c0.948,1.614,0.281,4.667-0.027,5.61l-5.458,16.692c-1.07,3.271-3.271,5.455-6.365,6.315      C73.596,46.749,73.494,46.762,73.394,46.762z M80.492,18.553c-0.014,0.22-0.04,0.454-0.098,0.697      c-0.062,0.261-0.171,0.64-0.291,1.058c-0.196,0.683-0.466,1.617-0.503,2.011c-0.016,0.17,0.041,0.42,0.102,0.685      c0.066,0.285,0.128,0.572,0.152,0.861c0.081,0.965-0.233,1.814-0.509,2.563c-0.154,0.418-0.3,0.812-0.361,1.179      c-0.041,0.248-0.05,0.5-0.062,0.752c-0.012,0.252-0.024,0.504-0.053,0.754c-0.079,0.684-0.267,1.305-0.449,1.906      c-0.163,0.536-0.476,1.08-0.778,1.607c-0.239,0.417-0.486,0.847-0.574,1.137c-0.202,0.666-0.368,1.39-0.543,2.158      c-0.176,0.771-0.359,1.569-0.584,2.31c-0.144,0.475-0.232,0.888-0.315,1.279c-0.16,0.747-0.326,1.518-0.796,2.468l-0.2,0.392      c-0.261,0.507-0.508,0.986-0.576,1.435c-0.02,0.133-0.021,0.271-0.005,0.411c1.853-0.8,3.153-2.312,3.871-4.509l5.458-16.693      c0.425-1.296,0.541-3.233,0.226-3.769l0,0C83.026,18.261,81.119,18.458,80.492,18.553z"/></g><g><path style="fill:#FAD151;" d="M72.94,43.637c0.116-0.772,0.532-1.46,0.88-2.159c0.646-1.301,0.622-2.185,1.043-3.574      c0.427-1.407,0.7-3.061,1.126-4.468c0.251-0.826,1.102-1.917,1.352-2.743c0.171-0.561,0.341-1.126,0.409-1.708      c0.059-0.519,0.036-1.047,0.122-1.562c0.197-1.18,0.959-2.27,0.859-3.462c-0.049-0.589-0.31-1.159-0.254-1.747      c0.072-0.752,0.646-2.486,0.821-3.222c0.106-0.444,0.065-0.909,0.113-1.363c-4.841,0.986-9.172,4.812-13.266,7.6      c-2.024,1.379-4.097,2.837-5.972,4.336c-2.181,1.743-4.321,3.744-5.853,6.104c-1.182,1.821-3.265,5.813-2.278,8.042      c0.858,1.935,7.295,0.934,9.067,1.058c2.971,0.208,5.863,1.118,8.838,1.244c1.257,0.053,2.402-0.085,3.447-0.376      C73.018,45.044,72.836,44.329,72.94,43.637z"/><path d="M70.467,47.148c-0.188,0-0.378-0.004-0.568-0.012c-1.648-0.069-3.259-0.366-4.818-0.653      c-1.394-0.256-2.71-0.498-4.05-0.592c-0.374-0.028-1.115,0.014-1.9,0.056c-3.191,0.171-7.16,0.381-8.117-1.78      c-1.338-3.017,1.47-7.736,2.363-9.111c1.382-2.128,3.318-4.153,6.095-6.371c2.046-1.636,4.303-3.204,6.042-4.388      c0.86-0.586,1.731-1.219,2.616-1.86c3.445-2.501,7.007-5.086,11.058-5.912l1.504-0.306l-0.159,1.526      c-0.015,0.144-0.019,0.288-0.023,0.432c-0.01,0.322-0.022,0.686-0.114,1.074c-0.062,0.261-0.171,0.64-0.291,1.058      c-0.196,0.682-0.466,1.616-0.503,2.011c-0.016,0.17,0.041,0.42,0.102,0.685c0.066,0.285,0.128,0.572,0.152,0.861      c0.081,0.965-0.233,1.814-0.509,2.563c-0.154,0.418-0.3,0.812-0.361,1.179c-0.041,0.248-0.05,0.5-0.062,0.752      c-0.012,0.252-0.024,0.504-0.053,0.754c-0.079,0.684-0.267,1.305-0.449,1.906c-0.163,0.536-0.476,1.08-0.778,1.607      c-0.239,0.417-0.486,0.847-0.574,1.137c-0.202,0.666-0.368,1.39-0.543,2.158c-0.176,0.771-0.359,1.569-0.584,2.31      c-0.144,0.475-0.232,0.888-0.315,1.279c-0.16,0.747-0.326,1.518-0.796,2.468l-0.2,0.392c-0.261,0.507-0.508,0.986-0.576,1.435      c-0.059,0.396,0.047,0.844,0.291,1.228l0.816,1.283l-1.465,0.406C72.673,47.005,71.589,47.148,70.467,47.148z M60.724,43.63      c0.17,0,0.326,0.004,0.463,0.014c1.467,0.103,2.907,0.368,4.301,0.624c1.55,0.285,3.015,0.555,4.506,0.618      c0.64,0.025,1.265-0.001,1.868-0.083c-0.089-0.442-0.102-0.893-0.036-1.334v-0.001c0.123-0.816,0.483-1.515,0.801-2.132      l0.184-0.36c0.345-0.697,0.463-1.245,0.612-1.939c0.096-0.446,0.197-0.917,0.362-1.46c0.202-0.667,0.368-1.391,0.543-2.158      c0.176-0.772,0.359-1.569,0.583-2.31c0.163-0.536,0.475-1.08,0.777-1.605c0.239-0.417,0.487-0.848,0.575-1.139      c0.16-0.528,0.311-1.027,0.367-1.51c0.023-0.199,0.031-0.4,0.041-0.6c0.016-0.341,0.034-0.682,0.09-1.019      c0.096-0.577,0.286-1.091,0.47-1.589c0.223-0.606,0.416-1.128,0.377-1.594c-0.015-0.183-0.061-0.362-0.102-0.543      c-0.09-0.388-0.201-0.872-0.15-1.406c0.054-0.56,0.275-1.357,0.581-2.42c0.055-0.19,0.107-0.371,0.153-0.533      c-3.003,1.015-5.861,3.09-8.64,5.107c-0.903,0.655-1.792,1.301-2.671,1.899c-1.705,1.161-3.917,2.698-5.903,4.286      c-2.582,2.062-4.366,3.917-5.612,5.838c-1.56,2.403-2.815,5.57-2.193,6.972c0.317,0.486,2.317,0.637,5.939,0.443      C59.69,43.661,60.264,43.63,60.724,43.63z"/></g></g><g><path d="M52.146,42.973l-0.615-2.167l1.083-0.308c4.54-1.292,8.385-3.469,11.118-6.296c4.66-4.823,8.693-4.138,12.593-3.476     c1.349,0.229,2.746,0.466,4.169,0.466h1.126v2.252h-1.126c-1.613,0-3.104-0.253-4.546-0.498     c-3.776-0.641-6.76-1.148-10.597,2.821c-3.008,3.112-7.199,5.497-12.121,6.897L52.146,42.973z"/></g><g><path d="M59.593,43.871l-0.095-1.122c-0.104-1.238-0.449-2.484-0.997-3.604l-0.158-0.314c-0.185-0.362-0.396-0.773-0.542-1.229     c-0.12-0.375-0.303-1.389-0.664-3.522c-0.122-0.718-0.224-1.323-0.267-1.524l-0.238-1.1l2.202-0.476l0.238,1.101     c0.046,0.214,0.156,0.859,0.286,1.624c0.172,1.011,0.491,2.893,0.588,3.21c0.09,0.281,0.242,0.578,0.403,0.893l0.175,0.347     c0.68,1.388,1.091,2.871,1.22,4.407l0.094,1.121L59.593,43.871z"/></g><g><path d="M64.51,37.74l-0.223-1.104c-0.182-0.899-0.571-1.763-1.124-2.498c-0.122-0.162-0.253-0.32-0.383-0.479     c-0.426-0.517-0.908-1.102-1.181-1.859c-0.134-0.369-0.199-0.733-0.257-1.054c-0.063-0.345-0.117-0.644-0.23-0.844l-0.557-0.978     l1.957-1.115l0.558,0.979c0.304,0.533,0.402,1.076,0.488,1.556c0.042,0.234,0.08,0.469,0.16,0.691     c0.141,0.39,0.462,0.78,0.801,1.191c0.151,0.184,0.303,0.368,0.444,0.557c0.754,1.002,1.283,2.18,1.531,3.406l0.224,1.103     L64.51,37.74z"/></g><g><path d="M68.495,32.868l-0.746-0.844c-0.3-0.339-0.673-0.76-0.901-1.324c-0.163-0.406-0.217-0.793-0.263-1.135l-0.033-0.23     c-0.148-0.945-0.574-1.867-1.199-2.594l-0.734-0.854l1.708-1.467l0.734,0.854c0.908,1.057,1.5,2.34,1.714,3.713l0.04,0.273     c0.032,0.232,0.062,0.452,0.121,0.598c0.082,0.203,0.294,0.442,0.499,0.674l0.746,0.843L68.495,32.868z"/></g><g><path d="M73.057,29.038l-1.503-1.677l0.839-0.751c0.039-0.035,0.114-0.29,0.006-0.765c-0.033-0.145-0.073-0.289-0.112-0.432     c-0.153-0.56-0.327-1.195-0.228-1.916c0.049-0.36,0.159-0.682,0.256-0.967c0.067-0.195,0.167-0.488,0.155-0.583l-0.425-1.043     l2.09-0.834l0.425,1.043c0.337,0.827,0.077,1.589-0.113,2.145c-0.07,0.206-0.136,0.4-0.156,0.545     c-0.036,0.266,0.063,0.63,0.169,1.016c0.048,0.175,0.095,0.349,0.135,0.523c0.285,1.241,0.037,2.287-0.697,2.946L73.057,29.038z"/></g><g><path d="M79.127,42.578l-1.104-0.219c-1.978-0.393-4.014-0.345-6.168-0.294c-3.765,0.088-8.03,0.189-13.198-2.009l-1.037-0.441     l0.882-2.072l1.036,0.441c4.721,2.007,8.559,1.917,12.264,1.83c2.284-0.053,4.439-0.104,6.659,0.336l1.105,0.22L79.127,42.578z"/></g><g><path d="M80.407,37.993l-1.122-0.084c-0.533-0.039-1.211-0.064-1.981-0.092c-3.606-0.133-9.056-0.332-12.071-2.326l-0.939-0.621     l1.243-1.879l0.939,0.622c2.487,1.645,7.76,1.838,10.911,1.953c0.803,0.03,1.51,0.056,2.065,0.097l1.123,0.083L80.407,37.993z"/></g><g><path d="M61.105,72.74l-2.207-0.444l0.221-1.103c0.011-0.053,1.066-5.442,0-10.726l-0.222-1.104l2.208-0.445l0.222,1.103     c1.158,5.742,0.048,11.379,0,11.616L61.105,72.74z"/></g><g><path d="M67.59,29.344l-0.985-2.006l1.001-0.496c0.199-0.097,4.981-2.382,15.382-0.091l1.1,0.243l-0.485,2.199l-1.1-0.243     c-9.519-2.099-13.862-0.108-13.905-0.087L67.59,29.344z"/></g><g><path d="M72.915,24.747l-0.542-2.187l1.093-0.271c0.194-0.047,4.814-1.164,10.626-0.012l1.104,0.219l-0.438,2.209l-1.104-0.218     c-5.322-1.056-9.603-0.022-9.645-0.012L72.915,24.747z"/></g></g><g><g><g><path style="fill:#4C4C4C;" d="M22.624,60.459c0.113-1.066-0.544-2.08-0.576-3.151c-0.019-0.642,0.187-1.27,0.395-1.881      c1.115-3.27,2.512-6.695,5.431-8.72c0.414-0.287,0.857-0.53,1.311-0.756c-0.322,3.572,0.134,7.221,1.612,10.484      c1.78,3.93,5.098,7.24,9.211,8.626c1.06-0.951,2.645-1.163,3.992-0.723c-0.044,0.34-0.084,0.681-0.134,1.02      c-0.201,1.369-0.515,2.85-1.621,3.745c-0.356,0.288-0.78,0.501-1.099,0.826c-0.666,0.68-0.742,1.689-0.996,2.587      c-0.254,0.898-0.941,1.871-1.916,1.811c-0.495-0.03-0.942-0.332-1.438-0.349c-0.436-0.014-0.762,0.424-1.024,0.987      c-0.373,0.801-1.566,0.766-1.886-0.056c-0.117-0.3-0.239-0.551-0.381-0.677c-0.581-0.519-1.531-0.285-2.23,0.079      c-1.905,0.991-3.356,2.741-3.925,4.735c-0.21,0.737-0.32,1.534-0.814,2.135c-0.494,0.601-2.56,1.828-3.201,1.382      c-1.577-1.096,0.675-5.564,2.928-8.915c0.706-1.05,1.341-3.232,0.059-3.543c-0.426-0.103-0.877-0.055-1.309-0.129      c-0.432-0.074-0.888-0.334-0.947-0.749c-0.036-0.251,0.081-0.494,0.162-0.735c0.311-0.92,0.085-1.987-0.576-2.721      c-0.598-0.663-1.536-1.098-1.813-1.931C21.466,62.721,22.5,61.627,22.624,60.459z"/><path d="M23.707,83.783c-0.368,0-0.716-0.086-1.014-0.294c-2.478-1.724,0.065-6.645,2.636-10.469      c0.416-0.619,0.64-1.484,0.606-1.843c-0.126-0.018-0.255-0.02-0.384-0.025c-0.244-0.011-0.488-0.025-0.728-0.066      c-1.014-0.172-1.748-0.839-1.872-1.698c-0.069-0.486,0.076-0.885,0.173-1.15c0.217-0.637,0.079-1.283-0.308-1.712      c-0.172-0.19-0.381-0.354-0.585-0.52c-0.524-0.426-1.176-0.957-1.46-1.808c-0.359-1.079,0.052-2.039,0.382-2.811      c0.164-0.385,0.319-0.749,0.351-1.047c0.038-0.361-0.09-0.791-0.239-1.289c-0.151-0.506-0.323-1.08-0.342-1.709      c-0.027-0.867,0.24-1.651,0.454-2.279c1.129-3.309,2.605-7.027,5.856-9.281c0.414-0.286,0.875-0.553,1.452-0.839      c0.366-0.18,0.8-0.15,1.137,0.08c0.337,0.23,0.522,0.625,0.486,1.03c-0.323,3.584,0.201,7.014,1.516,9.918      c1.634,3.61,4.595,6.495,7.995,7.824c1.274-0.821,2.979-1.034,4.532-0.527c0.514,0.169,0.836,0.68,0.766,1.217l-0.043,0.333      c-0.029,0.235-0.059,0.469-0.093,0.703c-0.244,1.662-0.658,3.351-2.028,4.458c-0.167,0.135-0.346,0.258-0.526,0.379      c-0.188,0.127-0.365,0.246-0.477,0.36c-0.288,0.293-0.406,0.809-0.543,1.406c-0.054,0.236-0.109,0.471-0.173,0.7      c-0.39,1.377-1.483,2.726-3.068,2.628c-0.395-0.024-0.731-0.14-1.001-0.233c-0.073-0.025-0.147-0.051-0.214-0.072      c-0.041,0.064-0.094,0.158-0.157,0.294c-0.361,0.776-1.143,1.269-2.022,1.231c-0.866-0.028-1.625-0.559-1.934-1.354      c-0.09-0.233-0.137-0.302-0.142-0.31c-0.002,0.03-0.361,0.021-0.9,0.302c-1.623,0.844-2.88,2.356-3.362,4.045      c-0.041,0.144-0.078,0.29-0.114,0.437c-0.169,0.673-0.362,1.435-0.912,2.104C26.988,82.404,25.179,83.783,23.707,83.783z       M25.286,68.878c0.121,0.015,0.243,0.018,0.364,0.024c0.279,0.012,0.596,0.026,0.938,0.109c0.669,0.162,1.175,0.605,1.425,1.247      c0.506,1.305-0.21,3.118-0.815,4.018c-2.652,3.945-3.398,6.475-3.267,7.214c0.531-0.158,1.49-0.727,1.736-1.025      c0.23-0.28,0.34-0.718,0.468-1.225c0.043-0.169,0.086-0.338,0.133-0.504c0.658-2.307,2.293-4.284,4.487-5.425      c1.349-0.702,2.659-0.674,3.501,0.081c0.275,0.246,0.456,0.576,0.593,0.895c0.507-0.981,1.159-1.459,1.985-1.436      c0.423,0.014,0.779,0.137,1.065,0.236c0.155,0.053,0.315,0.109,0.404,0.114c0.276,0.015,0.61-0.449,0.763-0.994      c0.055-0.192,0.1-0.39,0.145-0.59c0.178-0.772,0.398-1.732,1.13-2.479c0.272-0.277,0.566-0.476,0.826-0.651      c0.125-0.085,0.251-0.168,0.368-0.262c0.796-0.643,1.043-1.871,1.208-2.984c-0.751-0.026-1.476,0.198-1.985,0.655      c-0.303,0.271-0.728,0.357-1.111,0.229c-4.273-1.439-7.873-4.803-9.877-9.228c-1.2-2.651-1.814-5.674-1.809-8.847      c-2.319,1.916-3.512,4.98-4.453,7.737c-0.163,0.48-0.349,1.025-0.335,1.484c0.01,0.334,0.126,0.721,0.249,1.131      c0.19,0.638,0.407,1.361,0.321,2.172c0,0,0,0,0,0c-0.068,0.635-0.308,1.198-0.52,1.695c-0.208,0.487-0.405,0.947-0.316,1.214      c0.076,0.229,0.401,0.493,0.744,0.772c0.267,0.217,0.569,0.463,0.837,0.76c0.93,1.031,1.246,2.537,0.806,3.836L25.286,68.878z       M25.181,69.182L25.181,69.182L25.181,69.182z M22.624,60.458h0.011H22.624z"/></g><g><path style="fill:#FAD151;" d="M40.007,65.061c-4.113-1.385-7.431-4.695-9.211-8.626c-1.477-3.263-1.934-6.912-1.612-10.484      c0.997-0.495,2.067-0.865,3.15-1.163c2.421-0.667,4.93-1.043,7.449-1.125c1.595-0.052,7.351-0.466,8.542,0.816      c1.171,1.261-1.704,3.271-2.732,5.603c-0.982,2.226-0.658,4.817-0.879,7.237c-0.213,2.342-0.41,4.687-0.715,7.02      C42.652,63.897,41.067,64.11,40.007,65.061z"/><path d="M40.27,66.338l-0.622-0.21c-4.273-1.439-7.873-4.803-9.877-9.228c-1.475-3.258-2.065-7.079-1.707-11.049l0.057-0.628      l0.564-0.28c0.965-0.479,2.061-0.885,3.352-1.241c2.495-0.688,5.09-1.08,7.711-1.165l0.621-0.026      c4.547-0.2,7.601-0.071,8.783,1.201c1.381,1.488,0.043,3.204-1.034,4.583c-0.571,0.732-1.162,1.489-1.494,2.241      c-0.603,1.367-0.642,2.958-0.683,4.643c-0.018,0.753-0.037,1.505-0.104,2.242l-0.087,0.962c-0.18,1.998-0.367,4.065-0.633,6.101      L44.94,65.83l-1.291-0.422c-1.042-0.341-2.177-0.148-2.89,0.491L40.27,66.338z M30.258,46.694      c-0.209,3.352,0.328,6.546,1.565,9.276c1.634,3.61,4.595,6.495,7.995,7.824c0.919-0.592,2.064-0.865,3.21-0.786      c0.187-1.611,0.334-3.241,0.477-4.828l0.087-0.964c0.063-0.688,0.079-1.39,0.096-2.093c0.045-1.83,0.091-3.721,0.874-5.496      c0.444-1.009,1.153-1.917,1.779-2.719c0.448-0.574,1.124-1.44,1.132-1.75c-0.27-0.196-1.582-0.64-7.007-0.397l-0.648,0.027      c-2.444,0.08-4.862,0.446-7.187,1.085C31.738,46.12,30.954,46.39,30.258,46.694z"/></g></g><g><rect x="37.808" y="43.306" transform="matrix(0.9701 -0.2429 0.2429 0.9701 -11.0349 10.9594)" width="2.252" height="13.862"/></g><g><path d="M23.191,59.573l-1.869-1.257l0.628-0.934c4.073-6.06,10.094-7.905,14.932-9.386c3.397-1.041,6.331-1.939,7.562-3.974     l0.582-0.963l1.927,1.165l-0.583,0.964c-1.676,2.771-4.991,3.786-8.83,4.962c-4.732,1.449-10.095,3.09-13.722,8.488     L23.191,59.573z"/></g><g><path d="M25.846,70.607l-2.136-0.718l0.359-1.067c2.195-6.533,4.451-10.169,9.284-14.963l0.8-0.793l1.586,1.599l-0.799,0.793     c-4.601,4.565-6.643,7.854-8.735,14.08L25.846,70.607z"/></g><g><path d="M32.45,75.14l-2.049-0.936l0.467-1.024c0.966-2.114,1.227-3.904,1.529-5.977c0.304-2.086,0.648-4.449,1.83-7.38     l0.421-1.044l2.089,0.842l-0.421,1.044c-1.08,2.68-1.39,4.806-1.69,6.863c-0.313,2.15-0.609,4.181-1.708,6.589L32.45,75.14z"/></g><g><g><path style="fill:#4C4C4C;" d="M15.425,18.674c0.798-1.359,2.724-1.473,4.29-1.228c0.295,0.046,0.582,0.122,0.873,0.181      c0.048,0.454,0.007,0.919,0.113,1.363c0.175,0.736,0.749,2.47,0.821,3.222c0.056,0.588-0.205,1.159-0.254,1.747      c-0.1,1.192,0.662,2.282,0.859,3.462c0.086,0.515,0.063,1.043,0.123,1.562c0.067,0.582,0.238,1.147,0.408,1.708      c0.251,0.826,1.102,1.918,1.352,2.743c0.427,1.407,0.7,3.061,1.126,4.468c0.421,1.389,0.398,2.273,1.043,3.574      c0.347,0.7,0.763,1.388,0.879,2.159c0.104,0.692-0.078,1.407-0.454,1.999c-2.669-0.741-4.617-2.586-5.596-5.58      c-1.819-5.564-3.639-11.128-5.458-16.693C15.169,22.193,14.801,19.736,15.425,18.674z"/><path d="M26.606,46.762c-0.1,0-0.202-0.013-0.302-0.041c-3.093-0.86-5.294-3.044-6.365-6.315l-5.458-16.693      c-0.307-0.943-0.975-3.996-0.027-5.61l0,0c0.897-1.526,2.882-2.169,5.436-1.77c0.214,0.034,0.422,0.08,0.631,0.127l0.293,0.064      c0.482,0.098,0.844,0.498,0.895,0.987c0.02,0.196,0.028,0.395,0.034,0.593c0.008,0.236,0.014,0.458,0.054,0.625      c0.056,0.235,0.155,0.577,0.264,0.955c0.307,1.063,0.528,1.86,0.582,2.42c0.051,0.534-0.06,1.017-0.15,1.405      c-0.041,0.18-0.087,0.36-0.102,0.543c-0.039,0.466,0.154,0.988,0.377,1.594c0.184,0.498,0.374,1.012,0.47,1.588      c0.056,0.337,0.074,0.678,0.09,1.019c0.009,0.2,0.018,0.4,0.04,0.599c0.056,0.483,0.207,0.982,0.367,1.511      c0.088,0.29,0.336,0.721,0.575,1.138c0.302,0.526,0.615,1.069,0.778,1.605c0.225,0.742,0.407,1.539,0.583,2.311      c0.175,0.767,0.34,1.492,0.542,2.158c0.165,0.543,0.266,1.014,0.362,1.46c0.149,0.694,0.266,1.242,0.613,1.94l0.183,0.36      c0.318,0.617,0.679,1.316,0.801,2.132c0.14,0.939-0.078,1.924-0.618,2.771C27.346,46.571,26.984,46.762,26.606,46.762z       M18.443,18.471c-0.772,0-1.68,0.147-2.047,0.773l0,0c-0.315,0.536-0.199,2.473,0.226,3.769l5.458,16.693      c0.718,2.197,2.018,3.709,3.871,4.509c0.016-0.14,0.015-0.279-0.005-0.411c-0.067-0.449-0.314-0.927-0.575-1.434l-0.199-0.391      c-0.472-0.95-0.637-1.722-0.797-2.469c-0.084-0.391-0.171-0.804-0.315-1.279c-0.225-0.741-0.407-1.539-0.583-2.31      c-0.175-0.767-0.341-1.492-0.543-2.158c-0.088-0.289-0.336-0.72-0.575-1.137c-0.302-0.526-0.615-1.07-0.778-1.606      c-0.182-0.602-0.37-1.223-0.449-1.907c-0.029-0.25-0.041-0.502-0.053-0.753c-0.011-0.252-0.02-0.504-0.062-0.752      c-0.061-0.366-0.207-0.76-0.361-1.178c-0.277-0.749-0.59-1.598-0.509-2.563c0.024-0.29,0.086-0.576,0.152-0.861      c0.061-0.264,0.119-0.515,0.102-0.684c-0.037-0.395-0.307-1.329-0.504-2.012c-0.12-0.418-0.229-0.797-0.291-1.057      c-0.058-0.244-0.084-0.478-0.098-0.698C19.281,18.519,18.884,18.471,18.443,18.471z M15.425,18.674h0.011H15.425z"/></g><g><path style="fill:#FAD151;" d="M27.06,43.637c-0.116-0.772-0.532-1.46-0.879-2.159c-0.646-1.301-0.623-2.185-1.043-3.574      c-0.427-1.407-0.7-3.061-1.126-4.468c-0.25-0.826-1.102-1.917-1.352-2.743c-0.17-0.561-0.341-1.126-0.408-1.708      c-0.06-0.519-0.037-1.047-0.123-1.562c-0.197-1.18-0.959-2.27-0.859-3.462c0.049-0.589,0.31-1.159,0.254-1.747      c-0.072-0.752-0.646-2.486-0.821-3.222c-0.106-0.444-0.065-0.909-0.113-1.363c4.84,0.986,9.173,4.812,13.265,7.6      c2.025,1.379,4.097,2.837,5.973,4.336c2.181,1.743,4.321,3.744,5.853,6.104c1.182,1.821,3.265,5.813,2.278,8.042      c-0.858,1.935-7.295,0.934-9.067,1.058c-2.971,0.208-5.863,1.118-8.837,1.244c-1.257,0.053-2.402-0.085-3.447-0.376      C26.982,45.044,27.164,44.329,27.06,43.637z"/><path d="M29.533,47.148c-1.123,0-2.206-0.143-3.229-0.427l-1.464-0.406l0.816-1.283c0.244-0.384,0.35-0.832,0.29-1.228l0,0      c-0.067-0.449-0.314-0.928-0.575-1.435l-0.199-0.391c-0.472-0.95-0.637-1.722-0.797-2.469c-0.084-0.391-0.171-0.804-0.315-1.279      c-0.225-0.741-0.407-1.539-0.583-2.31c-0.175-0.767-0.341-1.492-0.543-2.158c-0.088-0.289-0.336-0.72-0.575-1.137      c-0.302-0.526-0.615-1.07-0.778-1.606c-0.182-0.602-0.37-1.223-0.449-1.907c-0.029-0.25-0.041-0.502-0.053-0.753      c-0.011-0.252-0.02-0.504-0.062-0.752c-0.061-0.366-0.207-0.76-0.361-1.178c-0.277-0.749-0.59-1.598-0.509-2.563      c0.024-0.29,0.086-0.576,0.152-0.861c0.061-0.264,0.119-0.515,0.102-0.684c-0.037-0.395-0.307-1.329-0.504-2.011      c-0.12-0.419-0.229-0.798-0.291-1.058c-0.092-0.389-0.104-0.753-0.114-1.075c-0.004-0.144-0.008-0.289-0.023-0.432l-0.159-1.526      l1.504,0.306c4.051,0.826,7.612,3.411,11.058,5.912c0.885,0.641,1.756,1.274,2.616,1.86c1.738,1.184,3.995,2.752,6.042,4.388      c2.776,2.218,4.712,4.242,6.095,6.371c0.892,1.375,3.7,6.094,2.363,9.111c-0.958,2.162-4.929,1.95-8.118,1.78      c-0.785-0.042-1.526-0.082-1.9-0.056c-1.34,0.095-2.657,0.336-4.05,0.592c-1.559,0.287-3.171,0.583-4.819,0.653      C29.91,47.144,29.721,47.148,29.533,47.148z M28.138,44.803c0.602,0.083,1.226,0.11,1.868,0.083      c1.49-0.063,2.956-0.332,4.506-0.618c1.393-0.256,2.834-0.521,4.301-0.624c0.51-0.037,1.245,0.003,2.177,0.053      c3.621,0.194,5.624,0.042,5.942-0.448c0.619-1.397-0.635-4.564-2.196-6.967c-1.246-1.921-3.029-3.775-5.611-5.838      c-1.987-1.588-4.199-3.125-5.904-4.286c-0.878-0.598-1.768-1.244-2.671-1.899c-2.779-2.017-5.638-4.093-8.641-5.107      c0.046,0.163,0.098,0.344,0.153,0.533c0.307,1.063,0.528,1.86,0.582,2.42c0.051,0.534-0.06,1.017-0.15,1.405      c-0.041,0.18-0.087,0.36-0.102,0.543c-0.039,0.466,0.154,0.988,0.377,1.594c0.184,0.498,0.374,1.012,0.47,1.588      c0.056,0.337,0.074,0.678,0.09,1.019c0.009,0.2,0.018,0.4,0.04,0.599c0.056,0.483,0.207,0.982,0.367,1.511      c0.088,0.29,0.336,0.721,0.575,1.138c0.302,0.526,0.615,1.069,0.778,1.605c0.225,0.742,0.407,1.539,0.583,2.311      c0.175,0.767,0.34,1.492,0.542,2.158c0.165,0.543,0.266,1.014,0.362,1.46c0.149,0.694,0.266,1.242,0.613,1.94l0.183,0.36      c0.318,0.617,0.679,1.316,0.801,2.132v0.001C28.24,43.91,28.226,44.361,28.138,44.803z"/></g></g><g><path d="M47.854,42.973l-1.083-0.308c-4.921-1.4-9.113-3.785-12.121-6.897c-3.836-3.967-6.819-3.461-10.597-2.821     c-1.442,0.245-2.933,0.498-4.546,0.498H18.38v-2.252h1.126c1.424,0,2.82-0.237,4.169-0.466c3.9-0.661,7.933-1.345,12.593,3.476     c2.734,2.827,6.578,5.004,11.118,6.296l1.083,0.308L47.854,42.973z"/></g><g><path d="M40.406,43.871l-2.244-0.189l0.094-1.121c0.129-1.536,0.54-3.019,1.22-4.406l0.175-0.348     c0.161-0.315,0.313-0.612,0.404-0.895c0.096-0.315,0.415-2.197,0.587-3.208c0.13-0.765,0.24-1.41,0.286-1.624l0.238-1.101     l2.202,0.476l-0.238,1.1c-0.043,0.201-0.145,0.806-0.267,1.524c-0.361,2.133-0.543,3.148-0.663,3.522     c-0.147,0.457-0.357,0.867-0.543,1.229l-0.159,0.315c-0.548,1.119-0.893,2.364-0.997,3.602L40.406,43.871z"/></g><g><path d="M35.49,37.74l-2.208-0.447l0.224-1.103c0.248-1.226,0.778-2.404,1.531-3.406c0.142-0.189,0.293-0.373,0.444-0.557     c0.339-0.411,0.66-0.801,0.801-1.191c0.08-0.222,0.117-0.457,0.16-0.691c0.087-0.48,0.185-1.023,0.489-1.556l0.558-0.979     l1.957,1.115l-0.557,0.978c-0.114,0.2-0.168,0.498-0.23,0.844c-0.058,0.321-0.124,0.685-0.257,1.054     c-0.273,0.757-0.755,1.342-1.18,1.859c-0.13,0.158-0.261,0.317-0.384,0.479c-0.553,0.735-0.942,1.599-1.124,2.498L35.49,37.74z"/></g><g><path d="M31.505,32.868l-1.686-1.493l0.746-0.843c0.205-0.232,0.416-0.471,0.499-0.675c0.058-0.145,0.089-0.365,0.12-0.597     l0.04-0.274c0.215-1.371,0.807-2.655,1.715-3.711l0.734-0.854l1.708,1.467l-0.733,0.854c-0.625,0.728-1.051,1.649-1.199,2.593     l-0.033,0.231c-0.047,0.342-0.1,0.728-0.263,1.133c-0.228,0.565-0.601,0.987-0.901,1.326L31.505,32.868z"/></g><g><path d="M26.943,29.038l-0.839-0.752c-0.734-0.659-0.982-1.705-0.697-2.947c0.04-0.173,0.087-0.347,0.135-0.522     c0.106-0.385,0.205-0.75,0.169-1.015c-0.02-0.146-0.086-0.34-0.156-0.546c-0.19-0.556-0.449-1.318-0.113-2.145l0.425-1.043     l2.086,0.849l-0.425,1.043c-0.008,0.08,0.092,0.374,0.158,0.569c0.097,0.284,0.207,0.607,0.256,0.968     c0.099,0.72-0.075,1.355-0.228,1.915c-0.04,0.143-0.079,0.287-0.112,0.431c-0.109,0.476-0.033,0.732,0.006,0.766l0.838,0.751     L26.943,29.038z"/></g><g><path d="M20.873,42.578l-0.438-2.209l1.104-0.22c2.221-0.44,4.378-0.389,6.659-0.336c3.707,0.087,7.543,0.178,12.263-1.83     l1.036-0.441l0.881,2.072l-1.036,0.441c-5.168,2.197-9.432,2.097-13.198,2.009c-2.156-0.052-4.191-0.099-6.168,0.294     L20.873,42.578z"/></g><g><path d="M19.592,37.993l-0.167-2.246l1.124-0.083c0.555-0.041,1.261-0.068,2.065-0.097c3.151-0.115,8.423-0.309,10.91-1.953     l0.94-0.622l1.242,1.879l-0.939,0.621c-3.015,1.994-8.465,2.193-12.071,2.326c-0.771,0.028-1.449,0.053-1.981,0.092     L19.592,37.993z"/></g><g><path d="M38.895,72.74l-0.223-1.103c-0.048-0.237-1.157-5.874,0-11.616l0.223-1.103l2.208,0.445l-0.222,1.104     c-1.065,5.284-0.011,10.673,0,10.726l0.221,1.103L38.895,72.74z"/></g><g><path d="M32.403,29.36l-1.003-0.498c-0.113-0.052-4.462-1.993-13.903,0.088l-1.099,0.243l-0.485-2.199l1.099-0.243     c10.406-2.292,15.185-0.007,15.383,0.091l1.009,0.5L32.403,29.36z"/></g><g><path d="M27.086,24.743l-1.092-0.267c-0.043-0.01-4.354-1.041-9.646,0.012l-1.105,0.218l-0.438-2.209l1.104-0.219     c5.811-1.153,10.432-0.036,10.625,0.012l1.092,0.271L27.086,24.743z"/></g></g><g><path style="fill:#98806D;" d="M51.905,47.672c-0.136-0.832,0.051-1.666,0.455-2.406c0.288-0.526,1.019-2.28,1.019-2.957    c0-1.088-1.578-1.94-1.483-2.129c0.213-0.419,0.356-0.879,0.356-1.25c0-1.244-1.008-2.252-2.252-2.252    c-1.244,0-2.252,1.008-2.252,2.252c0,0.37,0.144,0.831,0.356,1.25c0.095,0.188-1.482,1.04-1.482,2.129    c0,0.678,0.731,2.431,1.019,2.957c0.404,0.74,0.591,1.574,0.454,2.406c-0.162,0.992-0.347,2.25-0.347,3.083    c0,3.42,1.009,6.194,2.252,6.194c1.244,0,2.252-2.773,2.252-6.194C52.252,49.922,52.068,48.665,51.905,47.672z"/><path d="M50,58.075c-2.321,0-3.378-3.795-3.378-7.32c0-0.949,0.207-2.318,0.362-3.265c0.112-0.685-0.118-1.293-0.332-1.682    c-0.145-0.266-1.157-2.396-1.157-3.499c0-1.074,0.75-1.875,1.295-2.376c-0.095-0.304-0.168-0.651-0.168-1.003    c0-1.863,1.515-3.378,3.378-3.378c1.863,0,3.379,1.515,3.379,3.378c0,0.351-0.073,0.699-0.168,1.003    c0.544,0.5,1.294,1.302,1.294,2.376c0,1.103-1.011,3.232-1.155,3.496c-0.214,0.392-0.444,1-0.332,1.685l0,0    c0.155,0.947,0.362,2.316,0.362,3.265C53.378,54.28,52.321,58.075,50,58.075z M50,37.805c-0.62,0-1.126,0.506-1.126,1.126    c0,0.139,0.073,0.421,0.234,0.74c0.425,0.84-0.267,1.453-0.6,1.747c-0.629,0.556-0.761,0.792-0.761,0.891    c0.012,0.367,0.565,1.839,0.881,2.419c0.548,1.003,0.749,2.084,0.577,3.126c-0.082,0.5-0.332,2.026-0.332,2.901    c0,2.895,0.727,4.597,1.126,5.007c0.399-0.41,1.126-2.112,1.126-5.007c0-0.875-0.25-2.4-0.332-2.901l0,0    c-0.171-1.042,0.029-2.124,0.578-3.128c0.316-0.579,0.868-2.05,0.88-2.421c0-0.096-0.132-0.332-0.76-0.888    c-0.333-0.294-1.025-0.907-0.601-1.745c0.162-0.321,0.235-0.603,0.235-0.742C51.126,38.31,50.621,37.805,50,37.805z"/></g></g></svg>