<?xml version="1.0" ?><!DOCTYPE svg  PUBLIC '-//W3C//DTD SVG 1.1//EN'  'http://www.w3.org/Graphics/SVG/1.1/DTD/svg11.dtd'><svg enable-background="new 0 0 256 256" height="256px" id="Layer_1" version="1.1" viewBox="0 0 256 256" width="256px" xml:space="preserve" xmlns="http://www.w3.org/2000/svg" xmlns:xlink="http://www.w3.org/1999/xlink"><g><g><g><polygon fill="#B6BECC" points="13.739,237.955 97.698,218.154 175.451,212.211 254.475,186.97 158.409,54.625 14.749,66.829           "/><polygon fill="#D2EAFF" points="0,51.942 13.739,237.955 95.922,202.954 175.451,212.211 256,176.436 157.891,38.589       103.14,53.445 50.433,37.955     "/><polygon fill="#B9D6F0" points="50.433,37.955 95.922,202.954 175.451,212.211 103.14,53.445     "/><polygon fill="#53BD55" points="6.346,56.408 52.309,44.76 105.66,58.978 155.427,45.474 246.854,173.934 172.546,205.832       94.313,197.118 19.105,229.148     "/><g><path d="M173.322,115.529c-2.958-4.21-9.425-4.763-14.444-1.236c-5.019,3.527-6.69,9.799-3.732,14.008       c0.045,0.064,0.098,0.119,0.145,0.182l-11.417,14.398l2.794,6.134l13.772-17.369c2.901,0.59,6.264-0.081,9.151-2.11       C174.61,126.01,176.28,119.738,173.322,115.529z" fill="#FFFFFF"/><polygon fill="#FFFFFF" points="121.095,92.867 122.439,95.818 123.134,95.079 166.252,60.685 162.768,55.789 119.813,90.053             "/><path d="M80.435,146.781l-0.883-3.202l-0.879-3.188l-16.905,14.338c-0.944-1.377-2.217-2.33-3.732-2.639       c-4.11-0.837-8.434,3.358-9.658,9.369c-0.341,1.673-0.396,3.306-0.223,4.817l-31.708,26.893l0.547,7.404l33.583-28.483       c0.841,0.902,1.86,1.531,3.028,1.769c4.11,0.837,8.434-3.358,9.658-9.369c0.239-1.172,0.338-2.325,0.319-3.43l16.837-14.281       L80.435,146.781z" fill="#FFFFFF"/><path d="M59.419,70.549L58.358,66.7l-0.845-3.065l-8.371-0.578c-0.438-3.936-2.478-7.02-5.455-7.627       c-3.452-0.703-7.047,2.15-8.838,6.64L6.62,60.122l0.447,6.045l26.64,1.839c0.01,4.666,2.185,8.508,5.548,9.193       c3.829,0.78,7.841-2.81,9.362-8.164l8.955,0.618L59.419,70.549z" fill="#FFFFFF"/></g><path d="M54.661,169.964c-0.089,0-0.173-0.009-0.259-0.026c-0.635-0.129-1.28-0.837-1.725-1.894      c-0.667-1.584-0.805-3.693-0.379-5.788c0.822-4.04,3.29-6.274,4.682-6.274c0.089,0,0.173,0.009,0.259,0.026      c0.635,0.129,1.28,0.837,1.725,1.894c0.667,1.583,0.805,3.693,0.379,5.788C58.521,167.73,56.053,169.964,54.661,169.964z" fill="#E62C00"/><path d="M40.312,73.305c-0.089,0-0.173-0.009-0.259-0.026c-0.636-0.129-1.281-0.837-1.726-1.894      c-0.667-1.583-0.806-3.693-0.379-5.788c0.823-4.04,3.291-6.273,4.682-6.273c0.089,0,0.173,0.009,0.259,0.026      c1.402,0.286,2.957,3.495,2.104,7.682C44.171,71.071,41.703,73.305,40.312,73.305z" fill="#E62C00"/><path d="M162.509,127.859c-1.769,0-3.26-0.677-4.089-1.857c-0.997-1.419-0.762-3.072-0.534-3.931      c0.457-1.714,1.656-3.356,3.292-4.505c1.464-1.029,3.162-1.595,4.782-1.595c1.769,0,3.26,0.677,4.089,1.857      c0.997,1.419,0.762,3.072,0.533,3.931c-0.456,1.714-1.656,3.356-3.291,4.505C165.827,127.293,164.129,127.859,162.509,127.859z" fill="#E62C00"/><path d="M169.773,65.632c-8.667,8.056-9.332,21.24-5.597,30.187c6.751,16.174,19.87,14.216,14.835,40.023      c-4.468,22.904-9.19,47.772-1.437,67.832l69.279-29.739L169.773,65.632z" fill="#EDD9A2"/><path d="M246.854,173.934L172.446,69.387c-3.291,3.445-6.491,8.405-7.415,15.205      c-2.584,19.025,18.321,18.556,19.965,40.399c1.57,20.857-22.134,43.234-1.368,76.083L246.854,173.934z" fill="#DBF7FF"/><path d="M246.854,173.934l-72.717-102.17c-9.105,7.918-9.459,17.451-6.523,22.694      c4.513,8.058,17.775,11.086,20.435,27.246c3.053,18.555-10.258,34.809-11.274,50.734c-0.768,12.025,5.083,21.185,10.571,27.041      L246.854,173.934z" fill="#57C3FF"/><path d="M204.382,170.109c4.852,2.426,5.168-3.48,5.168-3.48S207.968,170.215,204.382,170.109z" fill="#D2EAFF"/><path d="M210.498,169.747c4.852,2.426,5.168-3.48,5.168-3.48S214.083,169.852,210.498,169.747z" fill="#D2EAFF"/><path d="M216.821,169.177c4.852,2.426,5.168-3.48,5.168-3.48S220.406,169.282,216.821,169.177z" fill="#D2EAFF"/><path d="M217.857,164.408c4.852,2.426,5.168-3.48,5.168-3.48S221.443,164.514,217.857,164.408z" fill="#D2EAFF"/><path d="M203.026,175.303c4.851,2.426,5.168-3.48,5.168-3.48S206.612,175.409,203.026,175.303z" fill="#D2EAFF"/><path d="M205.291,138.037c4.852,2.426,5.168-3.48,5.168-3.48S208.877,138.143,205.291,138.037z" fill="#D2EAFF"/><path d="M203.616,145.4c4.852,2.426,5.168-3.48,5.168-3.48S207.202,145.506,203.616,145.4z" fill="#D2EAFF"/><path d="M210.133,146.064c4.852,2.426,5.168-3.48,5.168-3.48S213.719,146.169,210.133,146.064z" fill="#D2EAFF"/><path d="M210.78,140.711c4.852,2.426,5.168-3.48,5.168-3.48S214.366,140.817,210.78,140.711z" fill="#D2EAFF"/><path d="M202.636,151.541c4.852,2.426,5.168-3.48,5.168-3.48S206.222,151.647,202.636,151.541z" fill="#D2EAFF"/><polygon fill="#3EA840" points="105.66,58.978 52.309,44.76 58.358,66.7 79.553,143.579 94.313,197.118 172.546,205.832       145.271,145.949 121.095,92.867     "/><polygon fill="#E6E2DF" points="132.43,155.957 136.662,156.756 146.668,149.016 143.874,142.881 134.398,150.212       102.711,144.62 118.616,99.885 122.439,95.818 121.095,92.867 119.813,90.053 119.225,90.522 113.384,96.692 110.333,105.272       76.073,72.637 57.513,63.635 58.358,66.7 59.419,70.549 71.162,76.245 108.132,111.463 96.72,143.562 78.686,140.38       78.674,140.391 79.553,143.579 80.435,146.781 122.696,154.239 159.042,193.736 163.457,189.674     "/></g><g><path d="M147.735,58.045c0-22.091-17.909-40-40-40s-40,17.909-40,40c0,0.002,0,0.005,0,0.007      c0.005,36.899,40,62.741,40,62.741S147.735,94.948,147.735,58.045L147.735,58.045z" fill="#FF7B22"/><circle cx="107.735" cy="58.045" fill="#EA6C18" r="30"/><path d="M107.735,84.045c-14.336,0-26-11.664-26-26c0-14.336,11.664-26,26-26c14.336,0,26,11.664,26,26      C133.735,72.381,122.072,84.045,107.735,84.045z" fill="#FFFFFF"/></g></g></g></svg>