<?xml version="1.0" ?><svg id="Layer_1" style="enable-background:new 0 0 500 500;" version="1.1" viewBox="0 0 500 500" xml:space="preserve" xmlns="http://www.w3.org/2000/svg" xmlns:xlink="http://www.w3.org/1999/xlink"><g><g><linearGradient gradientUnits="userSpaceOnUse" id="SVGID_1_" x1="109.706" x2="169.5619" y1="349.5402" y2="257.3132"><stop offset="0" style="stop-color:#FFC64F"/><stop offset="0.2772" style="stop-color:#E06919"/><stop offset="0.7073" style="stop-color:#FFC640"/><stop offset="1" style="stop-color:#FFA02B"/></linearGradient><path d="M237.771,354.686c-201.518,3.466-166.52-174.991-166.52-174.991    s-22.028,23.352-0.997,92.759c23.867,78.767,76.097,99.304,141.982,97.005C278.121,367.161,237.771,354.686,237.771,354.686z" style="fill:url(#SVGID_1_);"/><linearGradient gradientUnits="userSpaceOnUse" id="SVGID_2_" x1="48.0461" x2="82.0046" y1="230.2092" y2="177.8854"><stop offset="0" style="stop-color:#FFC64F"/><stop offset="0.2772" style="stop-color:#E06919"/><stop offset="0.7073" style="stop-color:#FFC640"/><stop offset="1" style="stop-color:#FFA02B"/></linearGradient><path d="M87.537,208.669c0,19.363-9.541,22.827-21.311,22.827c-11.77,0-21.311-3.464-21.311-22.827    c0-19.362,9.542-47.292,21.311-47.292C77.996,161.377,87.537,189.307,87.537,208.669z" style="fill:url(#SVGID_2_);"/><linearGradient gradientTransform="matrix(0.6329 -0.7743 0.7743 0.6329 -69.2724 335.6289)" gradientUnits="userSpaceOnUse" id="SVGID_3_" x1="114.2615" x2="148.2183" y1="84.8079" y2="32.4866"><stop offset="0" style="stop-color:#FFC64F"/><stop offset="0.2772" style="stop-color:#E06919"/><stop offset="0.7073" style="stop-color:#FFC640"/><stop offset="1" style="stop-color:#FFA02B"/></linearGradient><path d="M77.025,256.622c14.993,12.254,11.637,21.833,4.188,30.946    c-7.448,9.113-16.168,14.308-31.16,2.055c-14.993-12.254-30.58-37.317-23.132-46.43C34.37,234.08,62.033,244.368,77.025,256.622z" style="fill:url(#SVGID_3_);"/><linearGradient gradientTransform="matrix(0.876 0.4823 -0.4823 0.876 157.3757 -126.8615)" gradientUnits="userSpaceOnUse" id="SVGID_4_" x1="110.525" x2="144.483" y1="393.4977" y2="341.1746"><stop offset="0" style="stop-color:#FFC64F"/><stop offset="0.2772" style="stop-color:#E06919"/><stop offset="0.7073" style="stop-color:#FFC640"/><stop offset="1" style="stop-color:#FFA02B"/></linearGradient><path d="M109.396,271.326c-9.338,16.962-19.367,15.395-29.677,9.72    c-10.311-5.677-16.999-13.312-7.661-30.275c9.338-16.963,31.166-36.828,41.476-31.152    C123.844,225.294,118.733,254.364,109.396,271.326z" style="fill:url(#SVGID_4_);"/><linearGradient gradientTransform="matrix(0.3507 -0.9365 0.9365 0.3507 -20.0219 457.045)" gradientUnits="userSpaceOnUse" id="SVGID_5_" x1="144.2331" x2="178.1908" y1="82.286" y2="29.9633"><stop offset="0" style="stop-color:#FFC64F"/><stop offset="0.2772" style="stop-color:#E06919"/><stop offset="0.7073" style="stop-color:#FFC640"/><stop offset="1" style="stop-color:#FFA02B"/></linearGradient><path d="M101.299,306.291c18.133,6.79,18.031,16.94,13.904,27.962    c-4.128,11.022-10.717,18.743-28.85,11.953c-18.134-6.79-40.944-25.52-36.817-36.542    C53.664,298.642,83.166,299.501,101.299,306.291z" style="fill:url(#SVGID_5_);"/><linearGradient gradientTransform="matrix(0.9845 0.1754 -0.1754 0.9845 46.7321 -54.0917)" gradientUnits="userSpaceOnUse" id="SVGID_6_" x1="112.8877" x2="146.8459" y1="364.0333" y2="311.7099"><stop offset="0" style="stop-color:#FFC64F"/><stop offset="0.2772" style="stop-color:#E06919"/><stop offset="0.7073" style="stop-color:#FFC640"/><stop offset="1" style="stop-color:#FFA02B"/></linearGradient><path d="M136.676,309.82c-3.395,19.063-13.396,20.799-24.983,18.736    c-11.587-2.065-20.373-7.147-16.977-26.21c3.395-19.063,17.687-44.887,29.273-42.823    C135.577,261.587,140.072,290.757,136.676,309.82z" style="fill:url(#SVGID_6_);"/><linearGradient gradientTransform="matrix(-0.1731 -0.9849 0.9849 -0.1731 133.0039 603.9425)" gradientUnits="userSpaceOnUse" id="SVGID_7_" x1="222.0014" x2="255.9605" y1="82.2172" y2="29.8925"><stop offset="0" style="stop-color:#FFC64F"/><stop offset="0.2772" style="stop-color:#E06919"/><stop offset="0.7073" style="stop-color:#FFC640"/><stop offset="1" style="stop-color:#FFA02B"/></linearGradient><path d="M147.502,335.895c19.07-3.351,24.133,5.447,26.169,17.039    c2.037,11.593,0.277,21.589-18.794,24.94c-19.071,3.35-48.231-1.214-50.267-12.805    C102.573,353.476,128.431,339.247,147.502,335.895z" style="fill:url(#SVGID_7_);"/><linearGradient gradientTransform="matrix(0.9373 -0.3485 0.3485 0.9373 -67.8197 129.2101)" gradientUnits="userSpaceOnUse" id="SVGID_8_" x1="125.7498" x2="159.709" y1="287.5807" y2="235.2559"><stop offset="0" style="stop-color:#FFC64F"/><stop offset="0.2772" style="stop-color:#E06919"/><stop offset="0.7073" style="stop-color:#FFC640"/><stop offset="1" style="stop-color:#FFA02B"/></linearGradient><path d="M179.776,320.984c6.747,18.15-0.989,24.721-12.021,28.822    c-11.032,4.102-21.182,4.18-27.93-13.969c-6.747-18.15-7.537-47.654,3.495-51.755    C154.353,279.981,173.029,302.835,179.776,320.984z" style="fill:url(#SVGID_8_);"/><path d="M237.771,354.686c-25.305,0.436-46.869-2.005-65.253-6.593    c-0.035-0.12-0.085-0.228-0.121-0.347c8.338-4.289,13.12-11.32,7.38-26.762c-6.747-18.149-25.424-41.004-36.456-36.902    c-2.531,0.941-4.369,3.335-5.727,6.505c-0.47-7.58-1.867-15.004-4.156-20.707c0.127,1.739,0.232,3.48,0.13,5.197    c-0.033,0.548-0.08,1.092-0.138,1.635c-0.239,2.23-0.618,4.431-1.271,6.516c-0.505,1.613-1.127,3.172-1.875,4.649    c-0.709,1.405-1.015,2.915-1.518,4.378c0.149-0.526,0.164-1.072,0.34-1.592c-0.333,0.835-0.415,1.721-0.681,2.574    c-0.48,1.55-0.975,3.069-1.229,4.654c-0.218,1.331-0.214,2.657-0.273,3.996c-0.062,1.489-0.208,2.957-0.076,4.439    c0.143,1.659,0.58,3.26,0.964,4.884c0.274,1.142,0.39,2.305,0.782,3.419c0.889,2.545,2.121,4.983,3.628,7.297    c1.203-1.84,2.291-3.975,3.134-6.75c0.508,5.236,1.581,10.357,2.911,15.182c9.957,12.832,22.755,25.65,35.641,37.229    c12.152,1.727,24.921,2.341,38.332,1.874C278.121,367.161,237.771,354.686,237.771,354.686z" style="opacity:0.4;fill:#A20000;"/><path d="M102.855,220.481c1.296,10.338,7.091,19.273,15.46,24.263    c1.904-11.542,0.966-21.962-4.782-25.126c-2.849-1.568-6.608-1.033-10.697,0.698C102.845,220.378,102.847,220.419,102.855,220.481    z" style="opacity:0.4;fill:#A20000;"/></g><g><linearGradient gradientTransform="matrix(-1 0 0 1 703.3287 0)" gradientUnits="userSpaceOnUse" id="SVGID_9_" x1="313.0347" x2="372.8906" y1="349.5402" y2="257.3132"><stop offset="0" style="stop-color:#FFC64F"/><stop offset="0.2772" style="stop-color:#E06919"/><stop offset="0.7073" style="stop-color:#FFC640"/><stop offset="1" style="stop-color:#FFA02B"/></linearGradient><path d="M262.229,354.686c201.518,3.466,166.521-174.991,166.521-174.991    s22.028,23.352,0.997,92.759c-23.867,78.767-76.097,99.304-141.982,97.005C221.879,367.161,262.229,354.686,262.229,354.686z" style="fill:url(#SVGID_9_);"/><linearGradient gradientTransform="matrix(-1 0 0 1 703.3287 0)" gradientUnits="userSpaceOnUse" id="SVGID_10_" x1="251.3748" x2="285.3333" y1="230.2092" y2="177.8854"><stop offset="0" style="stop-color:#FFC64F"/><stop offset="0.2772" style="stop-color:#E06919"/><stop offset="0.7073" style="stop-color:#FFC640"/><stop offset="1" style="stop-color:#FFA02B"/></linearGradient><path d="M412.463,208.669c0,19.363,9.541,22.827,21.31,22.827s21.311-3.464,21.311-22.827    c0-19.362-9.542-47.292-21.311-47.292S412.463,189.307,412.463,208.669z" style="fill:url(#SVGID_10_);"/><linearGradient gradientTransform="matrix(-0.6329 -0.7743 -0.7743 0.6329 772.6011 335.6289)" gradientUnits="userSpaceOnUse" id="SVGID_11_" x1="242.935" x2="276.8918" y1="242.2291" y2="189.9078"><stop offset="0" style="stop-color:#FFC64F"/><stop offset="0.2772" style="stop-color:#E06919"/><stop offset="0.7073" style="stop-color:#FFC640"/><stop offset="1" style="stop-color:#FFA02B"/></linearGradient><path d="M422.975,256.622c-14.993,12.254-11.637,21.833-4.188,30.946    c7.448,9.113,16.168,14.308,31.16,2.055c14.993-12.254,30.58-37.317,23.132-46.43C465.63,234.08,437.967,244.368,422.975,256.622z    " style="fill:url(#SVGID_11_);"/><linearGradient gradientTransform="matrix(-0.876 0.4823 0.4823 0.876 545.953 -126.8615)" gradientUnits="userSpaceOnUse" id="SVGID_12_" x1="288.6428" x2="322.6007" y1="295.4311" y2="243.1081"><stop offset="0" style="stop-color:#FFC64F"/><stop offset="0.2772" style="stop-color:#E06919"/><stop offset="0.7073" style="stop-color:#FFC640"/><stop offset="1" style="stop-color:#FFA02B"/></linearGradient><path d="M390.604,271.326c9.338,16.962,19.367,15.395,29.677,9.72    c10.311-5.677,16.999-13.312,7.661-30.275c-9.338-16.963-31.165-36.828-41.476-31.152    C376.156,225.294,381.267,254.364,390.604,271.326z" style="fill:url(#SVGID_12_);"/><linearGradient gradientTransform="matrix(-0.3507 -0.9365 -0.9365 0.3507 723.3506 457.045)" gradientUnits="userSpaceOnUse" id="SVGID_13_" x1="215.5388" x2="249.4966" y1="272.699" y2="220.3762"><stop offset="0" style="stop-color:#FFC64F"/><stop offset="0.2772" style="stop-color:#E06919"/><stop offset="0.7073" style="stop-color:#FFC640"/><stop offset="1" style="stop-color:#FFA02B"/></linearGradient><path d="M398.701,306.291c-18.133,6.79-18.031,16.94-13.904,27.962    c4.128,11.022,10.717,18.743,28.85,11.953c18.134-6.79,40.944-25.52,36.817-36.542    C446.337,298.642,416.834,299.501,398.701,306.291z" style="fill:url(#SVGID_13_);"/><linearGradient gradientTransform="matrix(-0.9845 0.1754 0.1754 0.9845 656.5966 -54.0917)" gradientUnits="userSpaceOnUse" id="SVGID_14_" x1="313.0637" x2="347.0219" y1="328.3696" y2="276.0462"><stop offset="0" style="stop-color:#FFC64F"/><stop offset="0.2772" style="stop-color:#E06919"/><stop offset="0.7073" style="stop-color:#FFC640"/><stop offset="1" style="stop-color:#FFA02B"/></linearGradient><path d="M363.324,309.82c3.395,19.063,13.396,20.799,24.983,18.736    c11.587-2.065,20.373-7.147,16.977-26.21c-3.395-19.063-17.687-44.887-29.273-42.823    C364.423,261.587,359.928,290.757,363.324,309.82z" style="fill:url(#SVGID_14_);"/><linearGradient gradientTransform="matrix(0.1731 -0.9849 -0.9849 -0.1731 570.3248 603.9425)" gradientUnits="userSpaceOnUse" id="SVGID_15_" x1="186.8049" x2="220.764" y1="282.4774" y2="230.1526"><stop offset="0" style="stop-color:#FFC64F"/><stop offset="0.2772" style="stop-color:#E06919"/><stop offset="0.7073" style="stop-color:#FFC640"/><stop offset="1" style="stop-color:#FFA02B"/></linearGradient><path d="M352.499,335.895c-19.071-3.351-24.134,5.447-26.17,17.039    c-2.037,11.593-0.277,21.589,18.793,24.94c19.071,3.35,48.231-1.214,50.267-12.805    C397.427,353.476,371.569,339.247,352.499,335.895z" style="fill:url(#SVGID_15_);"/><linearGradient gradientTransform="matrix(-0.9373 -0.3485 -0.3485 0.9373 771.1484 129.2101)" gradientUnits="userSpaceOnUse" id="SVGID_16_" x1="316.3328" x2="350.2921" y1="358.442" y2="306.1171"><stop offset="0" style="stop-color:#FFC64F"/><stop offset="0.2772" style="stop-color:#E06919"/><stop offset="0.7073" style="stop-color:#FFC640"/><stop offset="1" style="stop-color:#FFA02B"/></linearGradient><path d="M320.223,320.984c-6.746,18.15,0.989,24.721,12.022,28.822    c11.032,4.102,21.182,4.18,27.929-13.969c6.747-18.15,7.537-47.654-3.495-51.755C345.647,279.981,326.971,302.835,320.223,320.984    z" style="fill:url(#SVGID_16_);"/><path d="M262.229,354.686c25.305,0.436,46.869-2.005,65.253-6.593    c0.035-0.12,0.085-0.228,0.121-0.347c-8.338-4.289-13.12-11.32-7.38-26.762c6.748-18.149,25.424-41.004,36.456-36.902    c2.53,0.941,4.37,3.335,5.727,6.505c0.47-7.58,1.867-15.004,4.156-20.707c-0.127,1.739-0.232,3.48-0.129,5.197    c0.032,0.548,0.079,1.092,0.137,1.635c0.239,2.23,0.617,4.431,1.271,6.516c0.505,1.613,1.126,3.172,1.875,4.649    c0.709,1.405,1.015,2.915,1.518,4.378c-0.149-0.526-0.164-1.072-0.34-1.592c0.333,0.835,0.415,1.721,0.681,2.574    c0.48,1.55,0.975,3.069,1.229,4.654c0.218,1.331,0.214,2.657,0.273,3.996c0.062,1.489,0.208,2.957,0.076,4.439    c-0.143,1.659-0.58,3.26-0.964,4.884c-0.274,1.142-0.39,2.305-0.782,3.419c-0.889,2.545-2.121,4.983-3.628,7.297    c-1.203-1.84-2.291-3.975-3.134-6.75c-0.508,5.236-1.581,10.357-2.911,15.182c-9.957,12.832-22.754,25.65-35.641,37.229    c-12.152,1.727-24.921,2.341-38.332,1.874C221.879,367.161,262.229,354.686,262.229,354.686z" style="opacity:0.4;fill:#A20000;"/><path d="M397.145,220.481c-1.296,10.338-7.091,19.273-15.46,24.263    c-1.904-11.542-0.966-21.962,4.782-25.126c2.849-1.568,6.608-1.033,10.697,0.698C397.155,220.378,397.152,220.419,397.145,220.481    z" style="opacity:0.4;fill:#A20000;"/></g><g><linearGradient gradientUnits="userSpaceOnUse" id="SVGID_17_" x1="365.8847" x2="126.2691" y1="139.0075" y2="332.2603"><stop offset="0" style="stop-color:#FFC64F"/><stop offset="0.2772" style="stop-color:#E06919"/><stop offset="0.7073" style="stop-color:#FFC640"/><stop offset="1" style="stop-color:#FFA02B"/></linearGradient><path d="M251.268,405.587c-5.013,0-9.854-1.527-14.008-4.41    c-11.383-7.911-69.464-49.332-95.78-88.153c-6.943-10.235-7.782-23.475-2.188-34.552c2.926-5.777,4.031-12.76,3.113-19.671    c-1.334-9.998-6.792-18.759-14.244-22.854c-8.858-4.867-14.955-14.165-16.295-24.871c-1.14-9.051-1.391-14.144-1.406-14.359    l-0.129-2.726l0.861-2.592c0.488-1.481,12.265-36.54,34.378-57.218c7.609-7.119,18.755-14.678,33.129-22.479    c20.865-11.31,44.641-17.289,68.762-17.289h7.624c24.128,0,47.898,5.979,68.748,17.286c14.38,7.804,25.526,15.363,33.136,22.478    c22.113,20.682,33.897,55.737,34.385,57.218l0.861,2.607l-0.137,2.741c-0.007,0.211-0.266,5.286-1.398,14.327    c-1.341,10.712-7.438,20.011-16.296,24.878c-7.459,4.095-12.91,12.853-14.244,22.858c-0.918,6.915,0.187,13.897,3.098,19.656    c5.602,11.063,4.77,24.307-2.166,34.556c-26.315,38.821-84.411,80.249-95.787,88.16    C261.123,404.06,256.281,405.587,251.268,405.587z" style="fill:url(#SVGID_17_);"/><g style="opacity:0.4;"><path d="M141.161,273.856c1.97-5.154,2.708-10.971,1.936-16.783c-1.335-9.998-6.792-18.759-14.244-22.855     c-8.858-4.867-14.955-14.165-16.296-24.87c-1.14-9.052-1.391-14.145-1.406-14.36l-0.129-2.725l0.861-2.593     c0.113-0.345,0.865-2.563,2.19-5.941c-1.764,4.362-2.748,7.269-2.88,7.67l-0.861,2.592l0.129,2.726     c0.015,0.215,0.266,5.307,1.406,14.359c1.34,10.706,7.437,20.004,16.295,24.871c7.452,4.095,12.911,12.856,14.244,22.854     C143.09,263.957,142.645,269.15,141.161,273.856z" style="fill:#FFE4B9;"/><path d="M375.074,234.218c-5.657,3.106-10.147,8.897-12.575,15.875     c2.537-6.191,6.707-11.304,11.883-14.147c6.769-3.719,11.905-10.035,14.559-17.584     C386.139,225.135,381.314,230.789,375.074,234.218z" style="fill:#FFE4B9;"/><path d="M361.762,311.288c-26.316,38.821-84.412,80.249-95.787,88.16c-4.16,2.883-9.002,4.41-14.016,4.41     c-5.013,0-9.855-1.527-14.007-4.41c-11.383-7.911-69.465-49.332-95.78-88.152c-6.023-8.878-7.435-20.013-4.058-30.04     c-4.169,10.463-3.007,22.372,3.366,31.768c26.316,38.821,84.397,80.242,95.78,88.153c4.154,2.883,8.995,4.41,14.008,4.41     c5.013,0,9.854-1.527,14.015-4.41c11.376-7.911,69.472-49.339,95.787-88.16c1.767-2.612,3.128-5.421,4.098-8.336     C364.264,306.971,363.174,309.202,361.762,311.288z" style="fill:#FFE4B9;"/></g><g style="opacity:0.2;"><path d="M364.354,305.989c-26.315,38.821-84.412,80.249-95.787,88.16c-4.16,2.883-9.002,4.41-14.015,4.41     c-5.014,0-9.855-1.527-14.008-4.41c-11.383-7.911-69.464-49.332-95.78-88.152c-6.943-10.236-7.782-23.476-2.188-34.553     c2.926-5.777,4.031-12.759,3.113-19.67c-1.334-9.998-6.792-18.759-14.244-22.855c-8.858-4.867-14.955-14.165-16.296-24.87     c-1.14-9.052-1.391-14.145-1.405-14.36l-0.129-2.725l0.86-2.593c0.182-0.55,1.926-5.74,5.171-13.092     c-5.348,10.906-8.219,19.408-8.453,20.12l-0.861,2.592l0.129,2.726c0.015,0.215,0.266,5.307,1.406,14.359     c1.34,10.706,7.437,20.004,16.295,24.871c7.452,4.095,12.911,12.856,14.244,22.854c0.918,6.911-0.187,13.894-3.113,19.671     c-5.595,11.078-4.755,24.318,2.188,34.552c26.316,38.821,84.397,80.242,95.78,88.153c4.154,2.883,8.995,4.41,14.008,4.41     c5.013,0,9.854-1.527,14.015-4.41c11.376-7.911,69.472-49.339,95.787-88.16c1.801-2.66,3.17-5.526,4.141-8.499     C364.917,305.004,364.675,305.515,364.354,305.989z" style="fill:#E77300;"/><path d="M377.666,228.918c-5.74,3.151-10.268,9.075-12.668,16.192c2.458-3.929,5.671-7.126,9.384-9.164     c6.91-3.796,12.102-10.307,14.705-18.065C386.241,222.497,382.357,226.341,377.666,228.918z" style="fill:#E77300;"/></g><g style="opacity:0.5;"><path d="M360.138,258.804c0.579-4.343,1.972-8.419,3.93-12.013c-3.705,4.494-6.284,10.395-7.143,16.833     c-0.918,6.915,0.186,13.897,3.099,19.656c5.258,10.383,4.776,22.655-1.028,32.601c0.682-0.955,1.429-1.912,2.074-2.865     c6.936-10.249,7.768-23.493,2.166-34.556C360.325,272.701,359.219,265.719,360.138,258.804z" style="fill:#FFD566;"/><path d="M391.353,191.395c-0.488-1.481-12.273-36.536-34.385-57.218     c-7.609-7.115-18.755-14.674-33.136-22.478c-20.85-11.307-44.62-17.286-68.748-17.286h-7.624     c-24.12,0-47.897,5.979-68.762,17.289c-14.373,7.801-25.52,15.36-33.129,22.479c-6.565,6.139-12.196,13.546-16.913,20.965     c4.009-5.754,8.563-11.342,13.699-16.145c7.609-7.119,18.755-14.678,33.129-22.478c20.865-11.311,44.641-17.29,68.762-17.29     h7.625c24.127,0,47.897,5.979,68.747,17.286c14.38,7.804,25.526,15.363,33.137,22.478c22.113,20.682,33.897,55.737,34.384,57.218     l0.861,2.607l-0.137,2.741c-0.007,0.211-0.265,5.286-1.398,14.326c-0.562,4.481-1.996,8.686-4.075,12.452     c3.881-4.789,6.473-10.76,7.289-17.271c1.132-9.041,1.391-14.116,1.398-14.327l0.137-2.741L391.353,191.395z" style="fill:#FFD566;"/></g><linearGradient gradientUnits="userSpaceOnUse" id="SVGID_18_" x1="342.2065" x2="49.6498" y1="128.0797" y2="446.342"><stop offset="0.027" style="stop-color:#A13413"/><stop offset="1" style="stop-color:#FFA02B"/></linearGradient><path d="M346.936,144.907c-7.746-7.246-19.142-14.349-30.102-20.293    c-19.053-10.334-40.28-15.512-61.75-15.512h-3.235h-1.159h-3.234c-21.47,0-42.696,5.177-61.749,15.512    c-10.96,5.944-22.356,13.048-30.103,20.293c-19.63,18.362-30.47,51.105-30.47,51.105s0.225,4.635,1.303,13.231    c0.724,5.766,3.867,11.121,8.795,13.828c11.171,6.137,19.701,18.532,21.73,33.797c1.365,10.264-0.446,20.111-4.555,28.227    c-3.184,6.288-2.704,13.881,1.231,19.687c23.292,34.369,74.895,72.44,92.001,84.33c3.43,2.384,7.832,2.384,11.262,0    c17.106-11.89,68.708-49.961,92.001-84.33c3.935-5.806,4.415-13.398,1.231-19.687c-4.111-8.116-5.92-17.963-4.555-28.227    c2.029-15.266,10.56-27.66,21.731-33.797c4.927-2.707,8.07-8.063,8.794-13.828c1.079-8.596,1.302-13.231,1.302-13.231    S366.567,163.268,346.936,144.907z" style="fill:url(#SVGID_18_);"/><g style="opacity:0.4;"><linearGradient gradientUnits="userSpaceOnUse" id="SVGID_19_" x1="374.4532" x2="277.1183" y1="245.957" y2="351.8443"><stop offset="0.027" style="stop-color:#A13413"/><stop offset="1" style="stop-color:#FFA02B"/></linearGradient><path d="M345.579,256.869c1.24-9.33,4.928-17.565,10.145-23.978     c-6.574,6.726-11.302,16.032-12.737,26.829c-1.365,10.264,0.445,20.111,4.555,28.228c3.184,6.288,2.704,13.88-1.231,19.687     c-4.021,5.932-8.922,11.971-14.306,17.969c6.421-6.931,12.24-13.947,16.898-20.821c3.935-5.806,4.415-13.398,1.231-19.687     C346.024,276.979,344.214,267.133,345.579,256.869z" style="fill:url(#SVGID_19_);"/><linearGradient gradientUnits="userSpaceOnUse" id="SVGID_20_" x1="323.6447" x2="165.2898" y1="116.7401" y2="289.0089"><stop offset="0.027" style="stop-color:#A13413"/><stop offset="1" style="stop-color:#FFA02B"/></linearGradient><path d="M346.936,144.907c-7.746-7.246-19.142-14.349-30.102-20.293     c-19.053-10.334-40.28-15.512-61.75-15.512h-3.234h-1.16h-3.234c-21.47,0-42.696,5.177-61.749,15.512     c-10.96,5.944-22.356,13.048-30.103,20.293c-1.85,1.73-3.595,3.618-5.287,5.564c0.885-0.923,1.77-1.848,2.695-2.712     c7.747-7.247,19.143-14.349,30.103-20.294c19.053-10.334,40.28-15.511,61.749-15.511h3.234h1.159h3.235     c21.47,0,42.696,5.176,61.75,15.511c10.96,5.945,22.356,13.048,30.103,20.294c19.63,18.361,30.469,51.106,30.469,51.106     s-0.224,4.634-1.302,13.23c-0.417,3.319-1.716,6.432-3.614,9.052c3.401-2.943,5.622-7.252,6.205-11.904     c1.08-8.596,1.304-13.23,1.304-13.23S366.567,163.268,346.936,144.907z" style="fill:url(#SVGID_20_);"/></g><path d="M341.925,152.073c-7.41-6.931-18.312-13.726-28.795-19.412    c-18.226-9.886-38.531-14.838-59.068-14.838h-3.094h-1.108h-3.094c-20.537,0-40.841,4.952-59.067,14.838    c-10.484,5.686-21.386,12.481-28.796,19.412c-18.777,17.563-29.146,48.886-29.146,48.886s0.215,4.433,1.247,12.656    c0.692,5.515,3.698,10.638,8.412,13.227c10.686,5.871,18.846,17.728,20.788,32.33c1.305,9.818-0.426,19.237-4.358,27.001    c-3.045,6.016-2.586,13.278,1.177,18.832c22.281,32.876,71.642,69.293,88.005,80.666c3.282,2.281,7.492,2.281,10.773,0    c16.364-11.373,65.724-47.79,88.005-80.666c3.764-5.554,4.224-12.816,1.177-18.832c-3.931-7.764-5.662-17.182-4.357-27.001    c1.941-14.602,10.101-26.458,20.787-32.33c4.713-2.589,7.72-7.712,8.412-13.227c1.032-8.223,1.246-12.656,1.246-12.656    S360.703,169.637,341.925,152.073z" style="opacity:0.2;fill:#8B0000;"/><linearGradient gradientUnits="userSpaceOnUse" id="SVGID_21_" x1="161.6522" x2="334.4593" y1="361.3548" y2="99.2481"><stop offset="0" style="stop-color:#FFC64F"/><stop offset="0.2772" style="stop-color:#E06919"/><stop offset="0.7073" style="stop-color:#FFC640"/><stop offset="1" style="stop-color:#FFA02B"/></linearGradient><path d="M342.781,149.471c-7.41-6.93-18.311-13.725-28.795-19.411    c-18.226-9.886-38.53-14.837-59.068-14.837h-3.093h-1.109h-3.094c-20.537,0-40.841,4.952-59.067,14.837    c-10.484,5.686-21.385,12.481-28.796,19.411c-18.777,17.564-29.146,48.886-29.146,48.886s0.215,4.434,1.247,12.657    c0.692,5.514,3.699,10.638,8.412,13.227c10.685,5.87,18.845,17.728,20.787,32.33c1.305,9.817-0.426,19.237-4.358,27.001    c-3.045,6.016-2.586,13.277,1.177,18.832c22.281,32.875,71.642,69.293,88.006,80.666c3.281,2.28,7.491,2.28,10.772,0    c16.364-11.373,65.724-47.791,88.005-80.666c3.764-5.555,4.224-12.816,1.178-18.832c-3.932-7.764-5.663-17.183-4.358-27.001    c1.941-14.602,10.101-26.46,20.787-32.33c4.713-2.589,7.72-7.713,8.412-13.227c1.032-8.223,1.247-12.657,1.247-12.657    S361.559,167.036,342.781,149.471z" style="fill:url(#SVGID_21_);"/><g style="opacity:0.3;"><path d="M159.197,277.261c0.079-0.171,0.097-0.359,0.183-0.528c3.931-7.764,5.662-17.183,4.357-27.002     c-1.941-14.602-10.101-26.458-20.787-32.33c-4.713-2.589-7.72-7.712-8.411-13.227c-1.033-8.222-1.247-12.656-1.247-12.656     s0.345-1.033,0.994-2.771c-2.452,5.733-3.748,9.609-3.748,9.609s0.215,4.434,1.247,12.657c0.692,5.514,3.698,10.637,8.411,13.227     c10.686,5.87,18.845,17.727,20.787,32.329C161.951,263.86,161.233,270.923,159.197,277.261z" style="fill:#FFED8B;"/><path d="M364.947,217.402c-8.527,4.685-15.385,13.217-18.818,23.878     c3.803-7.461,9.444-13.402,16.064-17.039c4.323-2.376,7.118-6.91,8.1-11.896C368.902,214.42,367.13,216.203,364.947,217.402z" style="fill:#FFED8B;"/><path d="M259.335,376.231c-3.281,2.28-7.492,2.28-10.773,0c-16.364-11.374-65.724-47.791-88.005-80.666     c-3.558-5.25-4.051-11.993-1.536-17.799c-0.674,2.013-1.463,3.962-2.396,5.806c-3.046,6.015-2.586,13.277,1.177,18.832     c22.281,32.875,71.641,69.292,88.005,80.666c3.281,2.28,7.492,2.28,10.773,0c16.363-11.374,65.724-47.791,88.005-80.666     c1.38-2.037,2.158-4.331,2.64-6.681C324.894,328.556,275.672,364.876,259.335,376.231z" style="fill:#FFED8B;"/></g><g style="opacity:0.2;"><path d="M341.482,256.57c0.144-1.078,0.388-2.106,0.598-3.153c-0.034,0.02-0.06,0.051-0.094,0.069     c-10.686,5.871-18.845,17.728-20.787,32.33c-1.306,9.818,0.425,19.237,4.357,27.002c1.713,3.382,2.198,7.138,1.731,10.783     c6.618-7.045,12.63-14.197,17.374-21.197c3.764-5.555,4.224-12.817,1.178-18.832C341.908,275.808,340.177,266.388,341.482,256.57     z" style="fill:#FFF78B;"/><path d="M342.781,149.472c-7.41-6.932-18.312-13.727-28.795-19.412     c-18.226-9.886-38.53-14.838-59.068-14.838h-3.093h-1.109h-3.093c-20.537,0-40.842,4.953-59.067,14.838     c-10.484,5.686-21.386,12.48-28.796,19.412c-9.112,8.523-16.224,20.269-21.151,30.12c0.294-0.285,0.571-0.596,0.869-0.875     c7.41-6.931,18.312-13.726,28.796-19.411c18.226-9.886,38.53-14.838,59.067-14.838h3.094h1.108h3.094     c20.537,0,40.841,4.953,59.067,14.838c10.484,5.686,21.386,12.48,28.796,19.411c18.778,17.563,29.146,48.886,29.146,48.886     s-0.122,2.202-0.51,6.101c3.185-3.932,6.957-7.168,11.134-9.463c4.713-2.59,7.72-7.713,8.412-13.227     c1.032-8.223,1.247-12.657,1.247-12.657S361.559,167.035,342.781,149.472z" style="fill:#FFF78B;"/></g><g style="opacity:0.2;"><linearGradient gradientUnits="userSpaceOnUse" id="SVGID_22_" x1="169.1528" x2="261.6567" y1="350.5855" y2="210.2795"><stop offset="0" style="stop-color:#FFC64F"/><stop offset="0.2772" style="stop-color:#E06919"/><stop offset="0.7073" style="stop-color:#FFC640"/><stop offset="1" style="stop-color:#FFA02B"/></linearGradient><path d="M265.821,362.413c-3.282,2.28-7.492,2.28-10.773,0     c-16.364-11.373-65.724-47.79-88.005-80.666c-3.765-5.554-4.224-12.816-1.178-18.832c3.932-7.764,5.663-17.183,4.358-27.001     c-1.941-14.602-10.101-26.46-20.787-32.33c-4.713-2.589-7.72-7.713-8.412-13.227c-1.032-8.223-1.246-12.657-1.246-12.657     s0.154-0.462,0.434-1.243c-6.278,11.88-9.599,21.9-9.599,21.9s0.215,4.434,1.247,12.657c0.693,5.514,3.698,10.637,8.412,13.227     c10.685,5.87,18.845,17.727,20.787,32.329c1.305,9.818-0.426,19.238-4.358,27.002c-3.045,6.015-2.586,13.277,1.177,18.832     c22.281,32.875,71.642,69.292,88.006,80.666c3.281,2.28,7.491,2.28,10.772,0c16.364-11.374,65.724-47.791,88.005-80.666     c2.468-3.642,3.365-8.01,2.935-12.286C323.405,320.582,280.805,351.997,265.821,362.413z" style="fill:url(#SVGID_22_);"/><linearGradient gradientUnits="userSpaceOnUse" id="SVGID_23_" x1="349.5702" x2="374.8876" y1="237.8157" y2="199.4152"><stop offset="0" style="stop-color:#FFC64F"/><stop offset="0.2772" style="stop-color:#E06919"/><stop offset="0.7073" style="stop-color:#FFC640"/><stop offset="1" style="stop-color:#FFA02B"/></linearGradient><path d="M371.434,203.584c-10.165,5.585-17.977,16.618-20.393,30.247     c3.206-3.988,7.008-7.271,11.228-9.59c4.713-2.59,7.72-7.713,8.412-13.227c0.39-3.112,0.636-5.492,0.826-7.484     C371.479,203.544,371.46,203.57,371.434,203.584z" style="fill:url(#SVGID_23_);"/></g><g style="opacity:0.4;"><path d="M341.482,256.57c0.92-6.917,3.271-13.186,6.589-18.527c-5.132,6.179-8.751,14.195-9.959,23.28     c-1.305,9.817,0.426,19.237,4.358,27.001c2.996,5.918,2.563,13.025-1.035,18.543c1.107-1.492,2.224-2.985,3.226-4.464     c3.764-5.555,4.224-12.817,1.178-18.832C341.908,275.808,340.177,266.388,341.482,256.57z" style="fill:#FFCE47;"/><path d="M342.781,149.472c-7.41-6.932-18.312-13.727-28.795-19.412     c-18.226-9.886-38.53-14.838-59.068-14.838h-3.093h-1.109h-3.093c-20.537,0-40.842,4.953-59.067,14.838     c-10.484,5.686-21.386,12.48-28.796,19.412c-4.729,4.423-8.921,9.719-12.552,15.167c2.793-3.734,5.849-7.297,9.183-10.415     c7.41-6.931,18.311-13.725,28.795-19.411c18.226-9.886,38.53-14.839,59.066-14.839h3.094h1.109h3.093     c20.537,0,40.842,4.953,59.068,14.839c10.484,5.686,21.385,12.48,28.795,19.411c18.778,17.564,29.146,48.886,29.146,48.886     s-0.214,4.433-1.246,12.656c-0.275,2.19-1.009,4.264-1.976,6.195c2.938-2.798,4.819-6.751,5.346-10.947     c1.032-8.223,1.247-12.657,1.247-12.657S361.559,167.035,342.781,149.472z" style="fill:#FFCE47;"/></g><linearGradient gradientUnits="userSpaceOnUse" id="SVGID_24_" x1="207.2986" x2="301.4181" y1="270.504" y2="157.375"><stop offset="0.027" style="stop-color:#A13413"/><stop offset="1" style="stop-color:#FFA02B"/></linearGradient><path d="M249.841,299.264l-80.012-80.011c-0.317-0.317-0.317-0.83,0-1.147    l80.012-80.012c0.317-0.317,0.83-0.317,1.147,0l80.011,80.012c0.317,0.317,0.317,0.83,0,1.147l-80.011,80.011    C250.671,299.581,250.158,299.581,249.841,299.264z" style="opacity:0.5;fill:url(#SVGID_24_);"/><linearGradient gradientUnits="userSpaceOnUse" id="SVGID_25_" x1="179.639" x2="307.6511" y1="314.3134" y2="145.803"><stop offset="0.027" style="stop-color:#A13413"/><stop offset="1" style="stop-color:#FFA02B"/></linearGradient><path d="M249.883,295.837l-74.159-74.159c-0.294-0.294-0.294-0.77,0-1.063    l74.159-74.16c0.294-0.294,0.77-0.294,1.063,0l74.16,74.16c0.293,0.294,0.293,0.769,0,1.063l-74.16,74.159    C250.652,296.131,250.176,296.131,249.883,295.837z" style="opacity:0.3;fill:url(#SVGID_25_);"/><linearGradient gradientUnits="userSpaceOnUse" id="SVGID_26_" x1="179.6388" x2="307.6508" y1="311.8471" y2="143.3368"><stop offset="0" style="stop-color:#FFC64F"/><stop offset="0.2772" style="stop-color:#E06919"/><stop offset="0.7073" style="stop-color:#FFC640"/><stop offset="1" style="stop-color:#FFA02B"/></linearGradient><path d="M249.883,293.371l-74.159-74.16c-0.294-0.293-0.294-0.77,0-1.063l74.159-74.159    c0.294-0.294,0.77-0.294,1.063,0l74.161,74.159c0.294,0.294,0.294,0.77,0,1.063l-74.161,74.16    C250.652,293.665,250.176,293.665,249.883,293.371z" style="fill:url(#SVGID_26_);"/><linearGradient gradientUnits="userSpaceOnUse" id="SVGID_27_" x1="184.2373" x2="297.0952" y1="305.7932" y2="157.2311"><stop offset="0" style="stop-color:#FFC64F"/><stop offset="0.2772" style="stop-color:#E06919"/><stop offset="0.7073" style="stop-color:#FFC640"/><stop offset="1" style="stop-color:#FFA02B"/></linearGradient><path d="M260.461,273.559c-2.869,2.869-7.518,2.869-10.386,0l-64.837-64.836    c-0.016-0.016-0.02-0.037-0.035-0.054l-4.818,4.818c-2.868,2.869-2.868,7.518,0,10.387l64.836,64.835    c2.869,2.869,7.518,2.869,10.387,0l64.835-64.835c2.853-2.853,2.858-7.462,0.036-10.333L260.461,273.559z" style="opacity:0.2;fill:url(#SVGID_27_);"/><linearGradient gradientUnits="userSpaceOnUse" id="SVGID_28_" x1="211.2467" x2="296.7476" y1="265.7592" y2="162.9895"><stop offset="0.027" style="stop-color:#A13413"/><stop offset="1" style="stop-color:#FFA02B"/></linearGradient><path d="M252.709,146.947c-1.496-0.494-3.093-0.494-4.59,0v69.438h-69.438    c-0.494,1.497-0.494,3.094,0,4.591h69.438v69.438c1.497,0.494,3.094,0.494,4.59,0v-69.438h69.439c0.494-1.497,0.494-3.094,0-4.591    h-69.439V146.947z" style="opacity:0.2;fill:url(#SVGID_28_);"/></g></g></svg>