<?xml version="1.0" ?><svg id="Layer_5" style="enable-background:new 0 0 62.255 62;" version="1.1" viewBox="0 0 62.255 62" xml:space="preserve" xmlns="http://www.w3.org/2000/svg" xmlns:xlink="http://www.w3.org/1999/xlink"><g><g><g><path d="M54.996,14v3c0,2.76-2.24,5-5,5c-2.76,0-5-2.24-5-5v-3H54.996z" style="fill:#FC6E51;"/></g><g><path d="M53.996,4l0.61-0.45c0.87-0.66,1.9-0.98,2.93-0.98c1.26,0,2.51,0.48,3.46,1.43l-6,10h-10l-6-10     c0.95-0.95,2.2-1.43,3.46-1.43c1.03,0,2.06,0.32,2.93,0.98L45.996,4l0.05-0.15c0.29-0.85,0.83-1.56,1.52-2.06     c0.69-0.5,1.53-0.79,2.43-0.79c1.79,0,3.38,1.15,3.95,2.85L53.996,4z" style="fill:#FF826E;"/></g><g><path d="M34.956,58.57L32.996,57c1.18-4.7,5.4-8,10.25-8h9.75v0.9c0,3.06-1.24,5.84-3.25,7.85     c-2.01,2.01-4.79,3.25-7.85,3.25C39.366,61,36.926,60.14,34.956,58.57z" style="fill:#A0D468;"/></g><g><path d="M32.996,57l-1.96,1.57c-1.97,1.57-4.41,2.43-6.94,2.43c-3.06,0-5.84-1.24-7.85-3.25     s-3.25-4.79-3.25-7.85V49h9.75C27.596,49,31.816,52.3,32.996,57z" style="fill:#A0D468;"/></g><g><path d="M57.836,31.01l0.16,0.99h-3c-3.31,0-6-2.69-6-6h2.92C54.846,26,57.346,28.12,57.836,31.01z" style="fill:#B4DD7F;"/></g><g><path d="M35.276,25c4.26,0,7.72,3.46,7.72,7.72c-0.09,0.09-0.19,0.19-0.28,0.28h-2     c-4.26,0-7.72-3.46-7.72-7.72V25H35.276z" style="fill:#B4DD7F;"/></g><g><path d="M55.996,45h-5.77c-4.32,0-8.14-2.77-9.5-6.86l-0.73-2.21c0.27-0.32,0.54-0.63,0.81-0.93h5.19     C51.516,35,55.996,39.48,55.996,45z" style="fill:#B4DD7F;"/></g><g><path d="M26.326,27.33v-0.01c1.41-1.96,0.97-4.69-0.98-6.11l-0.17-0.12c-0.73-0.53-1.64-0.75-2.54-0.61     c-0.14-0.89-0.63-1.69-1.36-2.23l-0.17-0.12c-1.96-1.42-4.69-0.98-6.11,0.96c-1.42-1.95-4.16-2.38-6.11-0.96l-0.17,0.12     c-0.73,0.54-1.22,1.34-1.36,2.23c-0.18-0.03-0.36-0.04-0.53-0.04c-0.72,0-1.42,0.22-2.01,0.65l-0.17,0.12     c-1.96,1.43-2.39,4.16-0.97,6.12c0.02,0.02,0.03,0.04,0.05,0.06c-2.1,0.82-3.22,3.22-2.52,5.44l0.06,0.2     c0.27,0.86,0.86,1.58,1.65,1.99c-0.4,0.8-0.47,1.74-0.2,2.6l0.06,0.2c0.71,2.25,3.02,3.51,5.22,2.85     c0.03,2.4,1.98,4.33,4.38,4.33h0.21c0.9,0,1.77-0.36,2.41-1c0.64,0.64,1.51,1,2.41,1h0.21c2.42,0,4.37-1.95,4.38-4.37     c1.76,0.56,3.6-0.04,4.71-1.37c0.35-0.41,0.62-0.9,0.8-1.44l0.06-0.2c0.28-0.86,0.2-1.8-0.21-2.6c0.81-0.41,1.42-1.13,1.7-1.99     l0.06-0.2C29.866,30.54,28.616,28.07,26.326,27.33z" style="fill:#FC6E51;"/></g><g><path d="M13.096,35.59c-0.29,0.16-0.61,0.23-0.92,0.23c-0.52,0.01-1.03-0.18-1.42-0.58     c-0.64-0.63-0.75-1.58-0.35-2.34c-0.81-0.25-1.41-1-1.41-1.9c0-0.46,0.16-0.89,0.42-1.22c0.25-0.32,0.6-0.56,0.99-0.68     c-0.4-0.76-0.29-1.71,0.35-2.34c0.63-0.64,1.58-0.75,2.34-0.35c0.19-0.63,0.69-1.13,1.32-1.32c0.18-0.06,0.38-0.09,0.58-0.09     c0.9,0,1.65,0.6,1.9,1.41c0.76-0.4,1.71-0.29,2.34,0.35c0.6,0.59,0.73,1.45,0.42,2.18c-0.02,0.06-0.04,0.11-0.07,0.16     c0.81,0.25,1.41,1,1.41,1.9s-0.6,1.65-1.41,1.9c0.4,0.76,0.29,1.71-0.35,2.34c-0.08,0.08-0.17,0.16-0.27,0.23     c-0.61,0.43-1.41,0.47-2.07,0.12c-0.25,0.81-1,1.41-1.9,1.41C14.096,37,13.346,36.4,13.096,35.59z" style="fill:#FF826E;"/></g><g><circle cx="14.996" cy="31" r="2" style="fill:#E9573F;"/></g></g><g><path d="M17.996,31c0-1.654-1.346-3-3-3s-3,1.346-3,3s1.346,3,3,3S17.996,32.654,17.996,31z M13.996,31c0-0.551,0.449-1,1-1    s1,0.449,1,1s-0.449,1-1,1S13.996,31.551,13.996,31z"/><path d="M48.469,28.51c1.012,2.622,3.552,4.49,6.527,4.49h4.181l-0.359-2.151C58.253,27.46,55.349,25,51.913,25h-1.414    c0.226-0.655,0.378-1.347,0.449-2.083c2.856-0.459,5.048-2.933,5.048-5.917v-2.723l6.259-10.432l-0.552-0.552    c-1.948-1.948-5.004-2.241-7.301-0.793C53.482,0.975,51.832,0,49.996,0c-1.837,0-3.486,0.975-4.406,2.5    c-2.299-1.448-5.353-1.155-7.301,0.793l-0.552,0.552l6.259,10.432V17c0,2.946,2.135,5.397,4.938,5.9    c-0.368,2.936-2.514,5.097-5.207,7.711C42.779,26.82,39.355,24,35.274,24h-3.279v1.279c0,4.698,3.736,8.53,8.393,8.705    c-3.063,3.335-6.14,7.753-7.565,14.592c-0.992-3.424-2.622-6.552-4.884-9.357c0.204-0.34,0.385-0.698,0.513-1.09l0.064-0.197    c0.269-0.828,0.288-1.697,0.064-2.518c0.664-0.533,1.159-1.247,1.428-2.075l0.063-0.195c0.79-2.431-0.254-5.021-2.361-6.279    c0.96-2.255,0.285-4.961-1.777-6.459l-0.167-0.122c-0.704-0.512-1.524-0.798-2.375-0.839c-0.301-0.795-0.827-1.487-1.531-1.999    l-0.167-0.122c-1.163-0.845-2.586-1.186-4.004-0.961c-1.016,0.161-1.937,0.608-2.692,1.271c-1.847-1.613-4.633-1.808-6.699-0.309    l-0.166,0.121c-0.704,0.512-1.23,1.204-1.532,1.999c-0.85,0.041-1.67,0.327-2.375,0.839l-0.166,0.121    c-2.114,1.536-2.776,4.334-1.712,6.62c-1.9,1.304-2.831,3.778-2.096,6.112l0.062,0.195c0.261,0.828,0.743,1.542,1.39,2.076    c-0.22,0.82-0.203,1.689,0.058,2.516l0.062,0.196c0.438,1.39,1.383,2.513,2.659,3.164c0.737,0.375,1.532,0.564,2.333,0.564    c0.109,0,0.217-0.02,0.326-0.027C7.69,44.208,9.826,46,12.376,46h0.206c0.871,0,1.703-0.25,2.414-0.717    C15.707,45.75,16.539,46,17.41,46h0.206c2.557,0,4.694-1.797,5.238-4.192c0.159,0.014,0.318,0.037,0.476,0.037    c1.188,0,2.329-0.405,3.257-1.11c2.615,3.33,4.306,7.139,5.015,11.398C29.46,49.579,26.261,48,22.75,48H11.996v1.896    C11.996,56.57,17.426,62,24.1,62c2.738,0,5.424-0.942,7.562-2.653l1.334-1.067l1.334,1.067C36.467,61.058,39.153,62,41.891,62    c6.674,0,12.104-5.43,12.104-12.104V48H43.242c-3.59,0-6.856,1.647-8.997,4.303c0.704-6.494,2.854-10.907,5.386-14.296    l0.147,0.445C41.27,42.967,45.467,46,50.222,46h6.774v-1c0-6.065-4.935-11-11-11h-2.864c0.597-0.602,1.189-1.179,1.765-1.737    C46.212,30.987,47.452,29.779,48.469,28.51z M56.812,31h-1.816c-2.415,0-4.435-1.721-4.899-4h1.817    C54.307,27,56.338,28.671,56.812,31z M44.79,4.345l0.382,0.287l1.896,4.74l1.857-0.743L47.069,3.99    C47.547,2.795,48.696,2,49.996,2c1.3,0,2.449,0.795,2.927,1.99l-1.856,4.638l1.857,0.743l1.896-4.74l0.382-0.287    c1.331-0.998,3.147-1.017,4.494-0.123L54.429,13h-8.868l-5.266-8.778C41.642,3.328,43.459,3.347,44.79,4.345z M45.996,17v-2h8v2    c0,2.206-1.794,4-4,4S45.996,19.206,45.996,17z M34.034,26h1.24c3.462,0,6.322,2.632,6.683,6h-1.24    C37.254,32,34.395,29.368,34.034,26z M18.002,18.339c0.894-0.141,1.786,0.073,2.515,0.604l0.167,0.122    c0.522,0.379,0.865,0.938,0.965,1.575l0.156,0.988l0.988-0.156c0.638-0.103,1.276,0.052,1.796,0.431l0.167,0.122    c1.327,0.964,1.742,2.725,1.073,4.161c-0.989-0.163-2.008-0.058-2.942,0.331l-2.175,0.906c-0.13-0.504-0.378-0.981-0.767-1.369    c-0.685-0.685-1.628-0.983-2.55-0.842c-0.487-0.659-1.233-1.075-2.065-1.168l-0.168-2.091c-0.064-0.804,0.161-1.606,0.635-2.258    C16.327,18.96,17.11,18.48,18.002,18.339z M12.628,34.705c-0.391,0.205-0.86,0.139-1.168-0.169    c-0.307-0.308-0.375-0.777-0.169-1.169l0.559-1.064l-1.148-0.356C10.279,31.815,9.996,31.435,9.996,31    c0-0.435,0.284-0.815,0.707-0.946l1.149-0.357l-0.561-1.064c-0.206-0.392-0.138-0.861,0.169-1.168    c0.307-0.307,0.777-0.376,1.169-0.169l1.064,0.559l0.356-1.148C14.181,26.284,14.561,26,14.996,26s0.815,0.284,0.946,0.706    l0.356,1.148l1.064-0.559c0.391-0.207,0.861-0.138,1.169,0.169c0.307,0.308,0.375,0.777,0.169,1.168l-0.561,1.064l1.149,0.357    c0.422,0.131,0.707,0.512,0.707,0.946c0,0.435-0.284,0.815-0.706,0.946l-1.148,0.356l0.559,1.064    c0.206,0.392,0.138,0.861-0.169,1.169c-0.308,0.308-0.777,0.375-1.168,0.169l-1.064-0.561l-0.356,1.149    C15.811,35.716,15.431,36,14.996,36s-0.815-0.284-0.946-0.707l-0.356-1.149L12.628,34.705z M5.235,22.022l0.166-0.121    c0.521-0.378,1.16-0.532,1.797-0.431l0.988,0.156l0.156-0.988c0.101-0.637,0.443-1.196,0.966-1.576l0.166-0.121    c1.328-0.964,3.131-0.814,4.289,0.265c-0.46,0.889-0.676,1.891-0.595,2.9l0.193,2.4c-0.289,0.191-0.556,0.417-0.765,0.699    c-0.918-0.137-1.865,0.157-2.55,0.842s-0.98,1.631-0.842,2.551c-0.032,0.024-0.056,0.057-0.088,0.082l-2.678-0.638    c-0.784-0.187-1.477-0.649-1.951-1.301C3.392,25.236,3.727,23.118,5.235,22.022z M5.39,39.5c-0.794-0.405-1.384-1.109-1.66-1.983    l-0.062-0.196c-0.192-0.61-0.141-1.289,0.142-1.861l0.433-0.875l-0.864-0.454c-0.553-0.291-0.965-0.789-1.159-1.403l-0.062-0.195    c-0.471-1.495,0.126-3.079,1.344-3.89c0.686,0.656,1.538,1.124,2.472,1.347l2.082,0.496C8.027,30.655,7.996,30.824,7.996,31    c0,0.969,0.46,1.847,1.208,2.399c-0.138,0.919,0.157,1.865,0.842,2.55c0.188,0.188,0.398,0.34,0.619,0.468l-1.078,1.819    c-0.406,0.686-1.035,1.199-1.772,1.445C7.01,39.951,6.149,39.887,5.39,39.5z M17.616,44H17.41c-0.635,0-1.258-0.258-1.707-0.707    l-0.707-0.707l-0.707,0.707C13.839,43.742,13.217,44,12.582,44h-0.206c-1.626,0-2.99-1.158-3.309-2.692    c0.921-0.449,1.707-1.151,2.241-2.051l1.393-2.352C13.256,37.579,14.08,38,14.996,38c0.969,0,1.847-0.46,2.399-1.208    c0.438,0.065,0.883,0.026,1.304-0.102l1.483,1.731c0.524,0.612,0.813,1.393,0.813,2.199C20.996,42.484,19.48,44,17.616,44z     M22.924,39.815c-0.15-0.991-0.565-1.928-1.223-2.696l-1.395-1.627c0.416-0.62,0.591-1.362,0.482-2.093    c0.748-0.552,1.208-1.43,1.208-2.399c0-0.636-0.214-1.223-0.562-1.714l2.222-0.925c0.746-0.311,1.577-0.344,2.343-0.094    c1.772,0.576,2.746,2.486,2.17,4.259l-0.063,0.195c-0.199,0.613-0.625,1.112-1.2,1.405l-0.891,0.454l0.454,0.891    c0.293,0.575,0.344,1.229,0.146,1.841l-0.064,0.197C26.043,39.07,24.496,40.008,22.924,39.815z M13.996,50h8.753    c3.938,0,7.408,2.391,8.854,5.955c-3.039-0.201-4.858-1.059-6.769-1.96C22.754,53.015,20.603,52,16.996,52v2    c3.159,0,5.018,0.876,6.986,1.804c1.694,0.799,3.576,1.674,6.367,2.028C28.574,59.229,26.359,60,24.1,60    C18.564,60,14.053,55.523,13.996,50z M43.242,50h8.753c-0.057,5.523-4.567,10-10.104,10c-2.259,0-4.474-0.771-6.249-2.168    c2.79-0.354,4.672-1.229,6.367-2.028C43.978,54.876,45.837,54,48.996,54v-2c-3.607,0-5.758,1.015-7.839,1.996    c-1.911,0.901-3.73,1.758-6.769,1.96C35.834,52.391,39.304,50,43.242,50z M54.941,44h-4.719c-3.89,0-7.324-2.481-8.545-6.175    l-0.554-1.675c0.044-0.051,0.089-0.099,0.134-0.15h4.739C50.62,36,54.441,39.506,54.941,44z"/></g></g></svg>